<svg width="38" height="40" viewBox="0 0 38 40" fill="none" xmlns="http://www.w3.org/2000/svg">
<g id="alchemia-nova-en">
<g id="Group">
<path id="Vector" d="M15.7256 6.30049L19.1087 6.23766L20.7533 9.20656C21.787 7.40009 23.7135 6.30049 25.781 6.30049L27.5196 3.37872L25.781 0.472656C21.6304 0.472656 17.8087 2.70326 15.7256 6.30049Z" fill="#98CBC7"/>
<path id="Vector_2" d="M25.781 0.472656L27.5196 3.37872L25.781 6.30049C27.8641 6.30049 29.775 7.41579 30.8087 9.20656L34.1918 9.25368L35.8521 6.30049C33.769 2.70326 29.9316 0.472656 25.781 0.472656Z" fill="#6E396D"/>
<path id="Vector_3" d="M35.8522 6.30078L34.2076 9.26968L30.8245 9.22255C31.8582 11.029 31.8582 13.2439 30.8245 15.0504L32.469 18.0193L35.8522 17.9565C37.9196 14.3435 37.9196 9.91373 35.8522 6.30078Z" fill="#EC6D79"/>
<path id="Vector_4" d="M35.8521 17.956L32.4689 18.0031L30.8244 15.0342C29.7906 16.8407 27.8641 17.956 25.7967 17.956L24.0581 20.8777L25.7967 23.7838C29.9473 23.7838 33.7846 21.5532 35.8521 17.956Z" fill="#FBBA00"/>
<path id="Vector_5" d="M25.781 23.784L24.0581 20.878L25.7967 17.9562C23.7135 17.9562 21.8027 16.8409 20.769 15.0501L17.3858 14.9873L15.7256 17.9562C17.8087 21.5534 21.6304 23.784 25.781 23.784Z" fill="#FDE900"/>
<path id="Vector_6" d="M15.7257 17.9557L17.3703 14.9868L20.7534 15.0497C19.7197 13.2432 19.7197 11.0283 20.7534 9.22183L19.1088 6.25293L15.7257 6.30005C13.6425 9.913 13.6425 14.3428 15.7257 17.9557Z" fill="#C4DCA6"/>
</g>
<path id="Vector_7" d="M3.35231 30.5549L2.78845 31.089C2.67881 31.1204 2.56918 31.1362 2.44387 31.1676C2.33424 31.1833 2.2246 31.199 2.11496 31.199C1.92701 31.199 1.72339 31.1676 1.5511 31.089C1.41014 31.0262 1.28484 30.9319 1.1752 30.822C1.08122 30.712 1.01857 30.5864 0.971586 30.445C0.940261 30.3036 0.908936 30.1779 0.908936 30.0366C0.908936 29.958 0.908936 29.8952 0.924598 29.8166C0.940261 29.7381 0.955923 29.6438 0.987249 29.5653C1.01857 29.4868 1.06556 29.3925 1.11255 29.3297C1.1752 29.2511 1.25351 29.1726 1.33183 29.1255L1.51978 29.0312C1.62942 28.9841 1.75472 28.9527 1.86436 28.9213C2.02098 28.8898 2.20893 28.8584 2.45954 28.8113C2.75713 28.7642 3.03905 28.7485 3.33665 28.7328V28.4029C3.35231 28.2301 3.30532 28.0573 3.18002 27.9316C3.02339 27.8374 2.83544 27.7902 2.64749 27.806C2.44387 27.806 2.25592 27.8217 2.06797 27.8531C1.84869 27.8845 1.62942 27.9316 1.4258 27.9945L1.28484 27.3504C1.5511 27.209 1.83303 27.1148 2.11496 27.0362C2.42821 26.9577 2.74146 26.9106 3.07038 26.9106C3.46195 26.8792 3.85351 26.9891 4.16676 27.1933C4.46436 27.4604 4.60532 27.8531 4.55833 28.2458V30.2565L5.2005 30.4136V30.8691C4.85592 31.0576 4.48002 31.1676 4.08845 31.1676C4.01014 31.1676 3.93183 31.1676 3.86917 31.1519C3.79086 31.1362 3.72821 31.1204 3.66556 31.0733C3.60291 31.0262 3.54026 30.9634 3.50893 30.8848C3.46195 30.7749 3.41496 30.6649 3.41496 30.5549H3.35231Z" fill="url(#paint0_linear_242_1550)"/>
<path id="Vector_8" d="M7.28363 30.445L7.81616 30.6492L7.80049 31.089H5.51375L5.48242 30.6649L6.10893 30.3978V25.8424L5.54507 25.6853V25.2455L7.15832 24.9941L7.26796 25.0413L7.28363 30.445Z" fill="url(#paint1_linear_242_1550)"/>
<path id="Vector_9" d="M8.25462 29.1094C8.25462 28.7795 8.30161 28.4654 8.41125 28.1512C8.50523 27.8842 8.66185 27.6485 8.8498 27.4443C9.03776 27.2558 9.2727 27.1144 9.5233 27.0202C9.80523 26.9259 10.0872 26.8945 10.3847 26.8945C10.5727 26.8945 10.745 26.9102 10.9173 26.9574C11.0739 26.9888 11.2305 27.0359 11.3715 27.1144C11.4968 27.1773 11.5908 27.2715 11.6847 27.3815C11.7631 27.4757 11.7944 27.5857 11.7944 27.7114C11.7944 27.8527 11.7317 27.9941 11.6378 28.1041C11.5438 28.2297 11.4028 28.324 11.2619 28.3711L10.3378 27.6014C10.1968 27.6171 10.0715 27.6642 9.94619 27.7428C9.83655 27.8213 9.74257 27.9156 9.67992 28.0412C9.60161 28.1669 9.55462 28.3083 9.5233 28.4497C9.49197 28.6068 9.47631 28.7638 9.47631 28.9366C9.47631 29.1251 9.49197 29.3136 9.5233 29.5021C9.55462 29.6435 9.60161 29.7849 9.69559 29.9106C9.78956 30.0205 9.91486 30.1148 10.0402 30.1619C10.2281 30.2247 10.4317 30.2561 10.6197 30.2404C10.7606 30.2404 10.9173 30.2247 11.0582 30.1933C11.2305 30.1619 11.4028 30.1305 11.5908 30.0833L11.7787 30.7431C11.6691 30.8059 11.5438 30.8688 11.4185 30.9159C11.2775 30.963 11.1522 31.0101 11.0112 31.0416C10.8703 31.073 10.745 31.0887 10.604 31.1201C10.4787 31.1358 10.3691 31.1515 10.2438 31.1515C9.5233 31.1515 9.00643 30.9787 8.69318 30.6174C8.41125 30.209 8.2233 29.6592 8.25462 29.1094Z" fill="url(#paint2_linear_242_1550)"/>
<path id="Vector_10" d="M13.7053 27.5859L14.3474 27.0047C14.4884 26.9732 14.6294 26.9418 14.786 26.9261C14.927 26.9104 15.0523 26.8947 15.1932 26.8947C15.5221 26.8633 15.8354 26.9575 16.086 27.1617C16.3053 27.3974 16.4149 27.7272 16.3836 28.0414V30.4605L16.9161 30.649L16.8848 31.0889H14.7077V30.649C14.786 30.6019 14.8643 30.5705 14.9583 30.5391C15.0366 30.5076 15.1306 30.4762 15.2089 30.4448V28.497C15.2246 28.3242 15.1776 28.1357 15.0679 27.9943C14.9426 27.8686 14.7547 27.8058 14.5667 27.8372C14.4258 27.8372 14.2848 27.8686 14.1438 27.9C13.9872 27.9472 13.8462 28.01 13.7053 28.0885V30.4762L13.9715 30.5548L14.2378 30.6333L14.2065 31.0889H12.0137C11.998 31.0103 11.998 30.9475 11.998 30.8689V30.6804L12.5776 30.4605V25.8894L12.0137 25.7323V25.261L13.627 25.0254C13.6583 25.0411 13.6896 25.0568 13.7366 25.0725V27.5859H13.7053Z" fill="url(#paint3_linear_242_1550)"/>
<path id="Vector_11" d="M19.3282 26.9106C19.6571 26.8949 19.986 26.9577 20.2993 27.0834C20.5185 27.1776 20.7221 27.319 20.8631 27.5075C20.9884 27.6803 21.0824 27.8845 21.1294 28.0887C21.1764 28.3086 21.2077 28.5128 21.2077 28.7328L21.145 28.8427L18.5294 28.9998C18.4981 29.3611 18.6077 29.7224 18.827 30.0051C19.0932 30.2251 19.4221 30.3193 19.7667 30.2879C19.939 30.2879 20.1113 30.2722 20.2836 30.2408C20.4872 30.2094 20.6908 30.1465 20.8944 30.0837L21.0981 30.712C20.8475 30.8534 20.5812 30.9791 20.2993 31.0419C19.986 31.1204 19.6728 31.1676 19.3438 31.1676C19.0149 31.1833 18.7017 31.1204 18.3884 31.0262C18.1535 30.9476 17.9342 30.8063 17.7462 30.6335C17.574 30.445 17.4487 30.2251 17.386 29.9737C17.3077 29.691 17.2764 29.3925 17.2764 29.0941C17.2764 28.827 17.3077 28.56 17.3547 28.3086C17.4017 28.0573 17.5113 27.806 17.6679 27.6017C17.8402 27.3818 18.0438 27.209 18.2944 27.0991C18.6234 26.9577 18.9836 26.9106 19.3282 26.9106Z" fill="url(#paint4_linear_242_1550)"/>
<path id="Vector_12" d="M23.1968 27.5704L23.7763 26.9892C23.9016 26.9578 24.0269 26.9264 24.1679 26.9107C24.2775 26.895 24.4028 26.895 24.5124 26.9107C24.7787 26.895 25.045 26.9578 25.2956 27.0678C25.4992 27.1934 25.6402 27.3976 25.6871 27.6333L26.298 27.0049C26.4233 26.9735 26.5643 26.9421 26.6896 26.9264C26.7992 26.9107 26.9245 26.895 27.0498 26.895C27.3787 26.8636 27.692 26.9735 27.9582 27.162C28.1775 27.3976 28.2871 27.7275 28.2558 28.0417V30.4922L28.8197 30.6807L28.7884 31.0891H26.6739L26.6582 30.6807L27.1908 30.4765V28.4658C27.2064 28.2773 27.1594 28.0888 27.0655 27.9317C26.9402 27.8061 26.7522 27.7432 26.5799 27.7589C26.4546 27.7589 26.3137 27.7904 26.1884 27.8375C26.0317 27.8846 25.8751 27.9631 25.7341 28.0574V30.4922L26.298 30.665L26.2667 31.0734H24.1679L24.1522 30.6807L24.7004 30.4765V28.4501C24.7161 28.2616 24.6691 28.0731 24.5594 27.916C24.4341 27.7904 24.2462 27.7275 24.0582 27.7432C23.9173 27.7432 23.792 27.7746 23.6667 27.8218C23.51 27.8689 23.3377 27.9474 23.1968 28.0417V30.4922L23.7606 30.665L23.7293 31.0891H21.5835L21.5679 30.6964L22.1474 30.4765V27.6961L21.5835 27.5233V27.1306L22.9462 26.9107L23.0245 26.9578L23.1968 27.5704Z" fill="url(#paint5_linear_242_1550)"/>
<path id="Vector_13" d="M30.9968 30.4608L31.5763 30.6807L31.5607 31.0891H29.2113L29.1799 30.6807L29.8221 30.4137V27.7432L29.2426 27.5704V27.1306L30.8558 26.895C30.8715 26.895 30.8872 26.9107 30.9028 26.9107C30.9185 26.9264 30.9341 26.9264 30.9498 26.9264L30.9968 30.4608ZM31.1064 25.6854C31.1064 25.8739 31.0438 26.0624 30.9028 26.2038C30.7619 26.3452 30.5739 26.4237 30.3703 26.408C30.1667 26.4237 29.9787 26.3452 29.8378 26.2038C29.7125 26.0624 29.6498 25.8739 29.6655 25.6854C29.6655 25.5912 29.6811 25.4969 29.7281 25.4184C29.7594 25.3398 29.8221 25.2613 29.8848 25.1985C29.9474 25.1356 30.0257 25.0885 30.1197 25.0414C30.2137 24.9943 30.3076 24.9785 30.4173 24.9785C30.6209 24.9628 30.8088 25.0414 30.9498 25.1828C31.0438 25.3241 31.1064 25.5126 31.1064 25.6854Z" fill="url(#paint6_linear_242_1550)"/>
<path id="Vector_14" d="M34.3486 30.5549L33.7848 31.089C33.6751 31.1204 33.5655 31.1362 33.4402 31.1676C33.3305 31.1833 33.2209 31.199 33.1113 31.199C32.9233 31.199 32.7197 31.1676 32.5474 31.089C32.4064 31.0262 32.2811 30.9319 32.1872 30.822C32.0932 30.712 32.0305 30.5864 31.9835 30.445C31.9366 30.3036 31.9209 30.1779 31.9209 30.0366C31.9209 29.958 31.9209 29.8952 31.9366 29.8166C31.9522 29.7381 31.9679 29.6438 31.9992 29.5653C32.0305 29.4868 32.0775 29.3925 32.1245 29.3297C32.1872 29.2511 32.2655 29.1726 32.3438 29.1255C32.3908 29.0941 32.4534 29.0626 32.5317 29.0312C32.6414 28.9841 32.7667 28.937 32.8763 28.9213C33.0329 28.8898 33.2209 28.8584 33.4558 28.8113C33.7534 28.7642 34.0354 28.7485 34.3329 28.7328V28.4029C34.3486 28.2301 34.3016 28.0573 34.192 27.9316C34.0354 27.8374 33.8474 27.7902 33.6595 27.806C33.4558 27.806 33.2679 27.8217 33.0799 27.8531C32.8607 27.8845 32.6414 27.9316 32.4378 27.9945L32.2498 27.3504C32.5161 27.209 32.798 27.1148 33.0799 27.0362C33.3932 26.9577 33.7064 26.9106 34.0354 26.9106C34.4269 26.8792 34.8185 26.9891 35.1474 27.1933C35.445 27.4604 35.586 27.8531 35.539 28.2458V30.2565L36.1811 30.4136V30.8691C36.0245 30.9634 35.8522 31.0419 35.6643 31.089C35.4607 31.1519 35.257 31.1833 35.0534 31.1833C34.9751 31.1833 34.9125 31.1833 34.8341 31.1676C34.7558 31.1519 34.6932 31.1204 34.6305 31.089C34.5679 31.0419 34.5052 30.9791 34.4739 30.9005C34.4269 30.7906 34.3956 30.6806 34.3799 30.5549H34.3486Z" fill="url(#paint7_linear_242_1550)"/>
<path id="Vector_15" d="M18.9836 32.6916C19.0149 32.7073 19.0463 32.723 19.0776 32.7387L19.2655 33.367L19.9077 32.7858C20.0487 32.7544 20.1896 32.723 20.3306 32.7073C20.4716 32.6916 20.5969 32.6759 20.7378 32.6759C21.0667 32.6445 21.38 32.7387 21.6463 32.9272C21.8655 33.1628 21.9752 33.4927 21.9439 33.8069V36.226L22.4607 36.4145V36.8543H20.2836L20.2679 36.4145L20.6752 36.2574C20.7065 36.2417 20.7378 36.226 20.7848 36.226V34.2781C20.8005 34.1053 20.7535 33.9168 20.6595 33.7755C20.5186 33.6498 20.3463 33.587 20.1583 33.6184C20.0957 33.6184 20.033 33.6341 19.986 33.6341C19.9077 33.6498 19.8294 33.6655 19.7667 33.6812C19.6884 33.6969 19.6101 33.7283 19.5318 33.7598C19.4535 33.7912 19.3752 33.8226 19.3125 33.8697V36.2417L19.5631 36.3202L19.8294 36.3988L19.7981 36.8543H17.6053C17.5896 36.7915 17.5896 36.7129 17.5896 36.6501V36.4302L18.1692 36.2103V33.5241L17.574 33.3828V32.9429C17.8089 32.8958 18.0439 32.8644 18.2788 32.8173C18.4981 32.7858 18.7487 32.7387 18.9836 32.6916Z" fill="#1D1D1B"/>
<path id="Vector_16" d="M27.0811 34.8114C27.0811 35.0784 27.0341 35.3612 26.9558 35.6125C26.8775 35.8639 26.7366 36.1152 26.5643 36.3194C26.3763 36.5236 26.157 36.6964 25.8908 36.8064C25.5932 36.932 25.2643 36.9949 24.951 36.9792C24.6378 36.9792 24.3088 36.932 24.0113 36.8378C23.7607 36.7593 23.5414 36.6022 23.3691 36.4137C23.1968 36.2252 23.0715 35.9895 22.9932 35.7539C22.9149 35.4712 22.8835 35.1727 22.8835 34.8899C22.8835 34.6072 22.9305 34.3244 23.0245 34.0574C23.1968 33.5233 23.5884 33.0992 24.1052 32.8793C24.4028 32.7536 24.7317 32.6908 25.0607 32.7065C25.3582 32.7065 25.6558 32.7536 25.9378 32.8478C26.1727 32.9421 26.392 33.0835 26.5799 33.272C26.7522 33.4605 26.8775 33.6961 26.9558 33.9317C27.0498 34.2145 27.0811 34.5129 27.0811 34.8114Z" fill="#1D1D1B"/>
<path id="Vector_17" d="M29.7907 35.5658H29.822L29.9943 35.126L30.2292 34.5133C30.3075 34.2934 30.3859 34.0892 30.4485 33.9007C30.5268 33.6965 30.5738 33.5551 30.6208 33.4609L30.0413 33.2567V32.8011L31.7642 32.754L31.8112 33.1781C31.6389 33.3352 31.4822 33.508 31.3569 33.7122C31.216 33.9321 31.1063 34.1677 30.9967 34.4034L29.9003 36.8382L29.1798 36.9796C29.1172 36.8539 29.0389 36.6811 28.9606 36.4926L28.663 35.88L28.3654 35.1888C28.2557 34.9532 28.1618 34.7175 28.0678 34.4976L27.8015 33.8693C27.7075 33.6808 27.6449 33.5237 27.5822 33.398L27.1907 33.241V32.8011L28.8353 32.7383C28.8509 32.8954 28.8822 33.0525 28.9136 33.2095C28.9606 33.3666 29.0075 33.5237 29.0702 33.6808L29.7907 35.5658Z" fill="#1D1D1B"/>
<path id="Vector_18" d="M34.3643 36.3353L33.8004 36.8694C33.6908 36.9008 33.5811 36.9165 33.4558 36.9479C33.3462 36.9636 33.2366 36.9793 33.1269 36.9793C32.939 36.9793 32.7354 36.9479 32.5631 36.8694C32.4221 36.8065 32.2968 36.7123 32.1872 36.6023C32.0932 36.4924 32.0305 36.3667 31.9835 36.241C31.9522 36.0996 31.9209 35.974 31.9209 35.8326C31.9209 35.7541 31.9209 35.6912 31.9366 35.6127C31.9522 35.5341 31.9679 35.4399 31.9992 35.3613C32.0305 35.2671 32.0775 35.1886 32.1245 35.11C32.1872 35.0315 32.2655 34.9529 32.3438 34.9058C32.4064 34.8744 32.4691 34.8273 32.5317 34.8116C32.6414 34.7644 32.7667 34.7173 32.8763 34.7016C33.0329 34.6702 33.2209 34.6388 33.4715 34.5916C33.7221 34.5602 33.9884 34.5288 34.3486 34.5131V34.1832C34.3643 34.0104 34.3173 33.8376 34.192 33.712C34.0354 33.6177 33.8474 33.5706 33.6595 33.5863C33.4558 33.5863 33.2679 33.602 33.0799 33.6334C32.8607 33.6648 32.6414 33.712 32.4221 33.7748L32.2342 33.1307C32.5004 32.9894 32.7823 32.8794 33.0643 32.8009C33.3775 32.7223 33.6908 32.6752 34.0197 32.6752C34.4113 32.6438 34.8028 32.7537 35.1317 32.9737C35.4293 33.2407 35.5703 33.6334 35.5233 34.0261V36.0368L36.1655 36.1939V36.6494C35.8209 36.8537 35.445 36.9479 35.0534 36.9636C34.9751 36.9636 34.8968 36.9636 34.8341 36.9479C34.7558 36.9322 34.6932 36.9165 34.6305 36.8694C34.5679 36.8222 34.5052 36.7594 34.4739 36.6809C34.4269 36.5709 34.3956 36.4609 34.3799 36.3353H34.3643Z" fill="#1D1D1B"/>
</g>
<defs>
<linearGradient id="paint0_linear_242_1550" x1="35.6825" y1="29.048" x2="0.996381" y2="29.048" gradientUnits="userSpaceOnUse">
<stop stop-color="#D5DA3B"/>
<stop offset="1" stop-color="#769A47"/>
</linearGradient>
<linearGradient id="paint1_linear_242_1550" x1="35.6825" y1="28.039" x2="0.996374" y2="28.039" gradientUnits="userSpaceOnUse">
<stop stop-color="#D5DA3B"/>
<stop offset="1" stop-color="#769A47"/>
</linearGradient>
<linearGradient id="paint2_linear_242_1550" x1="35.6824" y1="29.0502" x2="0.99629" y2="29.0502" gradientUnits="userSpaceOnUse">
<stop stop-color="#D5DA3B"/>
<stop offset="1" stop-color="#769A47"/>
</linearGradient>
<linearGradient id="paint3_linear_242_1550" x1="35.6825" y1="28.055" x2="0.99634" y2="28.055" gradientUnits="userSpaceOnUse">
<stop stop-color="#D5DA3B"/>
<stop offset="1" stop-color="#769A47"/>
</linearGradient>
<linearGradient id="paint4_linear_242_1550" x1="35.6825" y1="29.0508" x2="0.993657" y2="29.0508" gradientUnits="userSpaceOnUse">
<stop stop-color="#D5DA3B"/>
<stop offset="1" stop-color="#769A47"/>
</linearGradient>
<linearGradient id="paint5_linear_242_1550" x1="35.6824" y1="28.9959" x2="0.996288" y2="28.9959" gradientUnits="userSpaceOnUse">
<stop stop-color="#D5DA3B"/>
<stop offset="1" stop-color="#769A47"/>
</linearGradient>
<linearGradient id="paint6_linear_242_1550" x1="35.6824" y1="28.0345" x2="0.99633" y2="28.0345" gradientUnits="userSpaceOnUse">
<stop stop-color="#D5DA3B"/>
<stop offset="1" stop-color="#769A47"/>
</linearGradient>
<linearGradient id="paint7_linear_242_1550" x1="35.6825" y1="29.048" x2="0.996313" y2="29.048" gradientUnits="userSpaceOnUse">
<stop stop-color="#D5DA3B"/>
<stop offset="1" stop-color="#769A47"/>
</linearGradient>
</defs>
</svg>
