<svg width="43" height="15" viewBox="0 0 43 15" fill="none" xmlns="http://www.w3.org/2000/svg">
<g id="Group">
<path id="Vector" fill-rule="evenodd" clip-rule="evenodd" d="M25.0277 3.19925C24.4147 3.51868 23.5947 4.08559 23.0946 4.59063C24.1533 4.75323 25.212 4.91582 26.2706 5.07697V5.28561C26.1792 5.60935 26.0863 5.93454 25.9949 6.25972C24.2533 5.67986 22.156 5.63525 19.85 5.63381C19.8272 5.26259 19.8043 4.8928 19.7815 4.52157C20.6101 3.91868 21.4388 3.3158 22.2674 2.71435C22.2446 2.66831 22.2217 2.62226 22.1988 2.57478C21.3702 2.11147 20.5415 1.64815 19.7129 1.1834V0.0711531C22.406 -0.150432 24.8905 0.163241 26.8935 0.766126C26.8021 1.13735 26.7092 1.50714 26.6178 1.87837C25.5134 1.69276 24.4076 1.50714 23.3032 1.32153" fill="#989898"/>
<path id="Vector_2" fill-rule="evenodd" clip-rule="evenodd" d="M15.4316 0.69516C15.4545 0.542641 17.9976 -0.0242731 18.4005 0.208823C18.4005 0.208823 18.7691 3.91822 18.9534 5.77148C18.1933 5.88803 17.4347 6.00314 16.6746 6.11969" fill="#989898"/>
<path id="Vector_3" fill-rule="evenodd" clip-rule="evenodd" d="M13.843 1.18221C14.023 1.12466 15.0817 5.42975 15.2932 6.53624C14.5802 6.79092 13.8659 7.04559 13.153 7.30171C12.6001 5.98083 12.2529 5.14917 11.7014 3.82829C10.9685 4.20671 10.3141 4.49305 9.63264 4.83262C10.3227 6.13048 10.737 6.90746 11.4271 8.20532C10.8256 8.5305 9.93124 9.07296 9.42548 9.38807C8.41253 7.9046 6.27233 5.02974 6.38806 4.93765C8.66684 3.13619 10.6342 2.21244 13.8445 1.18221H13.843Z" fill="#979797"/>
<path id="Vector_4" fill-rule="evenodd" clip-rule="evenodd" d="M34.5902 5.00666C35.0046 5.22825 30.9399 3.14333 30.9099 3.21671C30.8356 3.39801 30.6699 3.83255 30.6213 3.96349C31.5528 4.47141 32.9172 5.14623 33.5901 5.63257C33.383 5.93329 33.1758 6.23546 32.9687 6.53618C32.0257 6.02682 31.0814 5.51602 30.1384 5.00666C30.1155 5.07573 30.0927 5.14623 30.0698 5.2153C29.9084 5.58653 29.7469 5.95632 29.5869 6.32754C30.6999 6.76784 32.0886 7.58367 32.8315 8.20526C32.7858 8.25131 32.7401 8.29735 32.6929 8.34483C32.5315 8.59951 32.37 8.85419 32.21 9.11031C30.5284 8.2139 29.0269 7.10885 26.9624 6.53762C27.491 4.75342 28.0211 2.96779 28.5497 1.18359C31.0699 1.9577 33.3487 2.94333 35.1774 4.38219" fill="#989898"/>
<path id="Vector_5" fill-rule="evenodd" clip-rule="evenodd" d="M42.1503 12.5163H42.0817C41.4316 12.3105 38.7028 11.5897 37.8699 11.8904C37.3641 12.0731 36.6441 12.781 36.2826 13.0026C35.754 12.3997 35.2239 11.7968 34.6953 11.1954C35.1782 10.7091 35.6625 10.2213 36.1454 9.73495C36.0769 8.15939 36.0069 6.58239 35.9383 5.00684C36.8212 5.56656 37.8713 6.4011 38.4928 7.23132C38.4014 8.06587 38.3085 8.90041 38.2171 9.73495C39.0743 9.69466 40.1872 9.55078 40.8402 9.87452" fill="#989898"/>
<path id="Vector_6" fill-rule="evenodd" clip-rule="evenodd" d="M2.86474 10.1512C3.00332 10.2433 3.40908 10.5498 3.54766 10.6419C4.2963 9.77856 5.0678 8.96848 5.97645 8.06919C6.22933 8.32387 6.27077 8.3656 6.52365 8.62028C5.97074 9.17712 5.46498 9.80158 4.91207 10.357C4.68205 10.6807 4.40631 10.9383 4.17629 11.262C4.54489 11.5397 4.91207 11.8189 5.28068 12.0966C5.28068 12.0505 5.34925 12.0491 5.34925 12.0031C5.70786 11.7038 7.86948 9.38575 8.04236 9.24618C8.24952 9.54691 8.45668 9.84907 8.66384 10.1498C8.34239 10.4275 8.0195 10.7066 7.69661 10.9843C6.73509 11.9138 5.41783 13.4333 4.65919 14.7398C4.63633 14.7858 4.61347 14.8319 4.59061 14.8793C3.09476 13.9297 1.79321 13.1023 0.297363 12.1513C1.72607 9.89367 3.03761 7.94689 5.07494 5.97852C5.32782 6.25622 5.5807 6.53536 5.83501 6.81306" fill="#989898"/>
</g>
</svg>
