<svg width="28" height="10" viewBox="0 0 28 10" fill="none" xmlns="http://www.w3.org/2000/svg">
<g id="Group">
<path id="Vector" fill-rule="evenodd" clip-rule="evenodd" d="M3.29334 0.199219C3.91483 0.593468 4.53631 0.987718 5.1578 1.38197C4.35201 3.0971 3.54622 4.81222 2.74186 6.52735C1.93607 6.04101 1.13029 5.55324 0.325928 5.0669V4.99784C1.31602 3.39926 2.30468 1.79924 3.29477 0.200659L3.29334 0.199219Z" fill="#989898"/>
<path id="Vector_2" fill-rule="evenodd" clip-rule="evenodd" d="M24.5583 1.24224C25.3112 1.21202 25.8041 1.35303 26.1456 1.72858C26.0999 1.82066 26.0541 1.91419 26.007 2.00628C25.4541 2.33002 24.9026 2.6552 24.3497 2.98039C24.304 2.95737 24.2583 2.93435 24.2111 2.91132C23.6525 2.65089 23.071 2.93147 22.761 3.32859C22.7838 3.44514 22.8067 3.56025 22.8296 3.6768C24.4626 3.65665 25.5098 2.74873 27.18 3.11996C29.3644 5.91999 22.7138 9.30709 21.1037 6.73583C21.8623 6.45813 22.6224 6.17899 23.3825 5.90129C24.3826 5.80489 24.7612 6.36604 25.5227 5.34445C25.4998 5.25236 25.4769 5.15883 25.4541 5.06674C23.9811 5.12286 22.7238 5.7905 21.1737 5.41495C19.3364 2.95737 22.6653 1.78325 24.5569 1.24224H24.5583Z" fill="#989898"/>
<path id="Vector_3" fill-rule="evenodd" clip-rule="evenodd" d="M7.78128 2.84215C10.2715 2.78891 12.0674 3.65511 12.6832 5.55442C11.9231 5.46233 11.1644 5.3688 10.4044 5.27672C10.2744 4.3803 9.48286 4.06375 8.47134 4.3026C7.4341 5.21916 7.23266 8.48107 9.36857 7.5012C9.88433 7.27674 10.0586 6.85084 10.2658 6.31846C11.0487 6.435 11.8302 6.55011 12.6131 6.66666C12.2088 9.6926 7.90701 9.06957 6.19256 7.70984C4.93673 6.71414 5.03817 4.44505 6.19256 3.39899C6.74118 2.98892 7.17837 2.84071 7.77985 2.84215H7.78128Z" fill="#989898"/>
<path id="Vector_4" fill-rule="evenodd" clip-rule="evenodd" d="M17.1704 3.46822C18.822 3.41067 19.8678 3.73873 20.415 4.7891V4.85817C19.7021 5.02076 18.9877 5.18335 18.2748 5.34451C17.7947 4.84954 16.7747 4.44377 16.066 5.27544C15.5331 5.93156 15.7274 7.56324 16.4118 7.9172C16.9775 8.34886 17.7233 8.0136 18.1376 7.70856C18.502 7.29849 18.572 6.97474 18.4134 6.38769C19.1963 6.22509 19.9778 6.0625 20.7607 5.90135C21.1508 9.30283 15.4945 10.6237 13.7187 8.19634C12.4685 6.48984 13.8544 4.4596 15.2374 3.88549C16.0232 3.55455 16.5689 3.46247 17.1704 3.46822Z" fill="#989898"/>
</g>
</svg>
