<svg width="971" height="281" viewBox="0 0 971 281" fill="none" xmlns="http://www.w3.org/2000/svg">
<path d="M143.342 68.0081C143.342 107.773 176.629 129.042 204.836 130.429V74.9437C197.439 74.9437 196.509 69.8578 196.509 65.2339C196.509 58.9346 200.208 55.5237 203.45 55.5237C433.561 55.2155 895.247 55.0615 901.177 55.0615C909.038 55.0615 914.124 61.5348 912.737 70.7824C911.246 80.7202 905.342 81.8796 903.495 82.8043V136.441C934.012 135.978 966.373 120.257 966.373 66.1586C966.373 21.7315 933.082 4.66194 914.586 1.42527L384.241 0.500397C336.924 0.500397 234.424 0.962891 199.745 0.96288C165.336 0.962869 143.343 31.9424 143.342 56.911C143.342 66.1586 143.343 54.5991 143.342 68.0081Z" fill="#CBCFF0" stroke="#CBCFF0"/>
<rect y="131.354" width="12.0219" height="144.263" fill="#8D7165"/>
<rect x="86.0028" y="131.354" width="12.0219" height="144.263" fill="#8D7F65"/>
<rect x="205.298" y="74.0187" width="12.0219" height="110.971" fill="#858D65"/>
<rect x="378.228" y="113.784" width="12.0219" height="4.62381" fill="#658D88"/>
<rect x="422.617" y="245.1" width="12.0219" height="4.62381" fill="#658D88"/>
<rect x="953.429" y="149.849" width="12.0219" height="2.77429" fill="#68658D"/>
<rect x="956.204" y="158.172" width="12.0219" height="2.77429" fill="#68658D"/>
<rect x="958.978" y="171.119" width="12.0219" height="2.77429" fill="#68658D"/>
<path d="M954.355 151.237C939.559 150.62 906.822 149.387 905.342 149.387M956.204 159.559C939.559 159.097 924.3 151.699 906.267 151.237M958.979 172.506C936.784 172.506 928.461 154.011 906.267 153.086" stroke="#CBCFF0" stroke-width="2"/>
<path d="M410.132 226.142C336.614 233.078 291.3 126.73 224.717 130.429" stroke="#CCF0CB" stroke-width="2"/>
<path d="M416.605 130.43C406.514 131.508 399.388 115.999 390.249 116.574" stroke="#CCF0CB" stroke-width="2"/>
<path d="M423.079 246.949C339.85 253.423 300.085 134.591 229.803 130.43" stroke="#CCF0CB" stroke-width="2"/>
<rect x="205.298" y="191.463" width="12.0219" height="88.7772" fill="#858D65"/>
<rect x="12.0222" y="131.354" width="73.981" height="144.263" fill="#F0E1CB"/>
<rect x="98.0251" y="131.354" width="107.272" height="53.6362" fill="#E9F0CB"/>
<path d="M98.0251 184.991C98.0251 184.991 191.426 191.926 205.297 191.926C205.297 203.486 205.297 250.186 205.297 279.779C198.362 280.241 98.0251 275.617 98.0251 275.617V184.991Z" fill="#E9F0CB"/>
<path d="M217.319 74.0185C217.319 74.0185 536.171 68.4703 583.525 68.4703C583.525 72.1907 583.525 86.6891 583.525 96.2132C559.848 96.362 217.319 103.186 217.319 103.186V74.0185Z" fill="#CCF0CB"/>
<path d="M217.323 104.536C226.16 104.89 243.009 103.952 262.17 106.386C276.873 108.253 309.333 115.537 309.333 115.537C309.333 115.537 344.239 126.867 360.195 129.042C387.006 132.697 409.137 130.43 416.147 130.429C416.147 140.139 416.147 151.237 416.147 158.172C411.985 158.172 388.952 161.155 360.195 156.759C329.142 152.012 292.262 137.023 262.17 133.069C242.742 130.516 225.797 131.47 217.323 131.354C217.319 120.719 217.047 116.096 217.323 104.536Z" fill="#CCF0CB"/>
<path d="M428.164 129.505C444.061 129.858 474.592 128.922 509.06 131.353C535.509 133.218 595.546 146.613 595.546 146.613C595.546 146.613 656.694 162.936 685.395 165.108C733.626 168.759 773.437 164.646 786.047 164.646C786.047 174.345 786.047 194.709 786.047 201.637C778.559 201.637 737.126 203.253 685.395 198.862C629.535 194.121 563.193 173.083 509.06 169.133C474.113 166.583 441.558 167.536 426.315 167.42C426.308 156.798 427.667 141.051 428.164 129.505Z" fill="#CBE7F0"/>
<path d="M591.848 68.4703C605.115 68.8253 634.296 67.8838 663.065 70.3275C685.139 72.2026 731.949 75.4061 731.949 75.4061C731.949 75.4061 780.962 80.0346 810.238 82.0657C847.545 84.6538 883.72 82.3419 894.245 82.3418C894.245 92.091 894.245 129.871 894.245 136.835C887.995 136.835 853.414 139.829 810.238 135.416C763.616 130.65 706.981 124.951 663.065 124.951C632.075 124.951 606.419 123.148 593.697 123.031C593.691 112.353 591.433 80.0768 591.848 68.4703Z" fill="#CBE7F0"/>
<path d="M594.16 122.569C607.428 122.607 634.297 124.818 663.066 125.079C685.14 125.279 736.574 135.053 736.574 135.053C736.574 135.053 780.962 145.534 810.239 145.751C847.545 146.027 883.721 148 894.246 148C894.246 149.04 894.246 153.625 894.246 154.367C887.996 154.367 853.415 151.912 810.239 151.442C763.617 150.933 706.982 130.905 663.066 130.905C632.076 130.905 606.42 129.517 593.698 129.505C593.692 128.366 593.746 123.807 594.16 122.569Z" fill="#CBE7F0"/>
<path d="M427.702 164.646C443.599 164.999 475.517 164.987 509.985 167.418C536.434 169.284 596.934 184.066 596.934 184.066C596.934 184.066 657.619 205.475 686.32 207.648C734.551 211.298 774.362 207.185 786.972 207.185C786.972 216.884 786.972 244.176 786.972 244.176C786.972 244.176 738.051 246.254 686.32 241.864C630.46 237.123 564.119 209.149 509.985 205.199C475.038 202.649 442.945 202.677 427.702 202.562C427.695 191.939 427.205 176.192 427.702 164.646Z" fill="#CBE7F0"/>
<rect x="583.525" y="68.4703" width="12.0219" height="61.0343" fill="#658D88"/>
<rect x="891.471" y="82.3417" width="12.0219" height="54.561" fill="#65758D"/>
<rect x="894.245" y="148" width="12.0219" height="6.47333" fill="#65758D"/>
<rect x="786.048" y="164.646" width="12.0219" height="36.9905" fill="#65758D"/>
<rect x="786.972" y="207.185" width="12.0219" height="36.9905" fill="#65758D"/>
<rect x="416.143" y="129.505" width="12.0219" height="73.0562" fill="#658D88"/>
<rect x="408.745" y="223.831" width="12.0219" height="4.62381" fill="#658D88"/>
</svg>
