<svg width="106" height="154" viewBox="0 0 106 154" fill="none" xmlns="http://www.w3.org/2000/svg">
<path d="M79.9837 109.733L105.815 152.753C107.309 151.007 99.3832 106.096 95.2336 83.8583L79.9837 109.733Z" fill="#CFE8EF"/>
<path d="M97.7234 154L79.9837 125.32C58.8207 118.046 16.4325 103.56 16.1835 103.81C16.0321 103.961 27.343 124.826 49.1729 138.413C63.2363 147.166 83.4073 153.065 97.7234 154Z" fill="#CFE8EF"/>
<path d="M48.5505 72.6356L73.137 113.474L9.64786 93.2105C9.64786 93.2105 4.57632 82.2746 2.801 74.8178C1.04186 67.429 0.622447 55.4899 0.622447 55.4899L48.5505 72.6356Z" fill="#CFE8EF"/>
<path d="M75.3155 101.004L92.4327 73.8826C92.4327 73.8826 87.0318 53.3438 80.6063 41.4615C76.5604 33.9798 67.535 26.498 67.535 26.498L54.1525 66.7126L75.3155 101.004Z" fill="#CFE8EF"/>
<path d="M13.0713 -8.12409e-06L47.9281 57.9838L60.9994 20.5749C60.9994 20.5749 49.0419 12.8163 40.77 9.04048C30.4175 4.3149 13.0713 -8.12409e-06 13.0713 -8.12409e-06Z" fill="#CFE8EF"/>
<path d="M40.77 60.4777L3.51415e-06 47.0729C3.51415e-06 47.0729 0.193364 34.3899 1.86734 26.498C3.52079 18.7027 8.40298 7.17003 8.40298 7.17003L40.77 60.4777Z" fill="#CFE8EF"/>
</svg>
