<svg width="10" height="10" viewBox="0 0 10 10" fill="none" xmlns="http://www.w3.org/2000/svg">
<mask id="mask0_0_7" style="mask-type:alpha" maskUnits="userSpaceOnUse" x="-9" y="-9" width="28" height="28">
<rect x="-8.11419" y="-8.14194" width="26.2284" height="26.2284" fill="#D9D9D9"/>
</mask>
<g mask="url(#mask0_0_7)">
<path d="M4.99979 6.50246L1.83052 9.67172C1.63017 9.87207 1.37517 9.97225 1.06553 9.97225C0.755888 9.97225 0.500889 9.87207 0.300534 9.67172C0.100178 9.47136 0 9.21637 0 8.90672C0 8.59708 0.100178 8.34209 0.300534 8.14173L3.4698 4.97247L0.300534 1.83052C0.100178 1.63017 0 1.37517 0 1.06553C0 0.755888 0.100178 0.500889 0.300534 0.300534C0.500889 0.100178 0.755888 0 1.06553 0C1.37517 0 1.63017 0.100178 1.83052 0.300534L4.99979 3.4698L8.14173 0.300534C8.34209 0.100178 8.59708 0 8.90672 0C9.21637 0 9.47136 0.100178 9.67172 0.300534C9.89029 0.519104 9.99957 0.778655 9.99957 1.07919C9.99957 1.37972 9.89029 1.63017 9.67172 1.83052L6.50246 4.97247L9.67172 8.14173C9.87207 8.34209 9.97225 8.59708 9.97225 8.90672C9.97225 9.21637 9.87207 9.47136 9.67172 9.67172C9.45315 9.89029 9.1936 9.99957 8.89306 9.99957C8.59253 9.99957 8.34209 9.89029 8.14173 9.67172L4.99979 6.50246Z" fill="#0E8283"/>
</g>
</svg>
