<svg width="11" height="11" viewBox="0 0 11 11" fill="none" xmlns="http://www.w3.org/2000/svg">
<mask id="mask0_0_3" style="mask-type:alpha" maskUnits="userSpaceOnUse" x="-3" y="-3" width="17" height="17">
<rect x="-2.75025" y="-2.75025" width="16.4995" height="16.4995" fill="#D9D9D9"/>
</mask>
<g mask="url(#mask0_0_3)">
<path d="M5.49983 7.95757C5.40817 7.95757 5.32223 7.94325 5.24203 7.9146C5.16182 7.88596 5.08734 7.83726 5.0186 7.76851L2.54367 5.29359C2.40618 5.15609 2.34029 4.99568 2.34602 4.81235C2.35175 4.62903 2.41763 4.46861 2.54367 4.33112C2.68117 4.19362 2.84444 4.12201 3.0335 4.11628C3.22256 4.11055 3.38583 4.17644 3.52333 4.31393L4.81235 5.60295V0.687479C4.81235 0.492693 4.87824 0.329417 5.01 0.19765C5.14177 0.0658834 5.30505 0 5.49983 0C5.69462 0 5.85789 0.0658834 5.98966 0.19765C6.12143 0.329417 6.18731 0.492693 6.18731 0.687479V5.60295L7.47633 4.31393C7.61383 4.17644 7.77711 4.11055 7.96616 4.11628C8.15522 4.12201 8.3185 4.19362 8.45599 4.33112C8.58203 4.46861 8.64791 4.62903 8.65364 4.81235C8.65937 4.99568 8.59349 5.15609 8.45599 5.29359L5.98107 7.76851C5.91232 7.83726 5.83784 7.88596 5.75764 7.9146C5.67743 7.94325 5.5915 7.95757 5.49983 7.95757ZM1.37496 10.9997C0.996845 10.9997 0.673157 10.865 0.403894 10.5958C0.134631 10.3265 0 10.0028 0 9.62471V8.24975C0 8.05496 0.0658834 7.89169 0.19765 7.75992C0.329417 7.62815 0.492693 7.56227 0.687479 7.56227C0.882265 7.56227 1.04554 7.62815 1.17731 7.75992C1.30907 7.89169 1.37496 8.05496 1.37496 8.24975V9.62471H9.62471V8.24975C9.62471 8.05496 9.69059 7.89169 9.82236 7.75992C9.95412 7.62815 10.1174 7.56227 10.3122 7.56227C10.507 7.56227 10.6702 7.62815 10.802 7.75992C10.9338 7.89169 10.9997 8.05496 10.9997 8.24975V9.62471C10.9997 10.0028 10.865 10.3265 10.5958 10.5958C10.3265 10.865 10.0028 10.9997 9.62471 10.9997H1.37496Z" fill="#E9E9E9"/>
</g>
</svg>
