<svg width="14" height="14" viewBox="0 0 14 14" fill="none" xmlns="http://www.w3.org/2000/svg">
<mask id="mask0_242_1514" style="mask-type:alpha" maskUnits="userSpaceOnUse" x="-2" y="-2" width="18" height="18">
<rect x="-1.39967" y="-1.39967" width="16.8001" height="16.8001" fill="#D9D9D9"/>
</mask>
<g mask="url(#mask0_242_1514)">
<path d="M7.00004 14.0001C6.0317 14.0001 5.1217 13.8163 4.27003 13.4488C3.41835 13.0813 2.67752 12.5826 2.04751 11.9526C1.41751 11.3226 0.918756 10.5817 0.551253 9.73006C0.183751 8.87839 0 7.96838 0 7.00004C0 6.0317 0.183751 5.1217 0.551253 4.27003C0.918756 3.41835 1.41751 2.67752 2.04751 2.04751C2.67752 1.41751 3.41835 0.918756 4.27003 0.551253C5.1217 0.183751 6.0317 0 7.00004 0C7.96838 0 8.87839 0.183751 9.73006 0.551253C10.5817 0.918756 11.3226 1.41751 11.9526 2.04751C12.5826 2.67752 13.0813 3.41835 13.4488 4.27003C13.8163 5.1217 14.0001 6.0317 14.0001 7.00004C14.0001 7.96838 13.8163 8.87839 13.4488 9.73006C13.0813 10.5817 12.5826 11.3226 11.9526 11.9526C11.3226 12.5826 10.5817 13.0813 9.73006 13.4488C8.87839 13.8163 7.96838 14.0001 7.00004 14.0001ZM7.00004 12.6001C8.56338 12.6001 9.88756 12.0576 10.9726 10.9726C12.0576 9.88756 12.6001 8.56338 12.6001 7.00004C12.6001 5.4367 12.0576 4.11253 10.9726 3.02752C9.88756 1.94251 8.56338 1.40001 7.00004 1.40001C5.4367 1.40001 4.11253 1.94251 3.02752 3.02752C1.94251 4.11253 1.40001 5.4367 1.40001 7.00004C1.40001 8.56338 1.94251 9.88756 3.02752 10.9726C4.11253 12.0576 5.4367 12.6001 7.00004 12.6001ZM5.60003 9.80006H8.40005C8.59839 9.80006 8.76464 9.73298 8.8988 9.59881C9.03297 9.46464 9.10005 9.29839 9.10005 9.10005V8.40005C9.10005 8.20172 9.03297 8.03547 8.8988 7.9013C8.76464 7.76713 8.59839 7.70005 8.40005 7.70005C8.20172 7.70005 8.03547 7.76713 7.9013 7.9013C7.76713 8.03547 7.70005 8.20172 7.70005 8.40005H6.30004V5.60003H7.70005C7.70005 5.79837 7.76713 5.96462 7.9013 6.09879C8.03547 6.23295 8.20172 6.30004 8.40005 6.30004C8.59839 6.30004 8.76464 6.23295 8.8988 6.09879C9.03297 5.96462 9.10005 5.79837 9.10005 5.60003V4.90003C9.10005 4.7017 9.03297 4.53544 8.8988 4.40128C8.76464 4.26711 8.59839 4.20003 8.40005 4.20003H5.60003C5.4017 4.20003 5.23545 4.26711 5.10128 4.40128C4.96711 4.53544 4.90003 4.7017 4.90003 4.90003V9.10005C4.90003 9.29839 4.96711 9.46464 5.10128 9.59881C5.23545 9.73298 5.4017 9.80006 5.60003 9.80006Z" fill="#303030"/>
</g>
</svg>
