<svg width="24" height="24" viewBox="0 0 24 24" fill="none" xmlns="http://www.w3.org/2000/svg">
<path d="M12 0C5.37067 0 0 5.37067 0 12C0 18.6293 5.37067 24 12 24C18.6293 24 24 18.6293 24 12C24 5.37067 18.6293 0 12 0ZM15.4453 7.52533C15.4453 7.52533 14.176 7.51467 13.856 7.51467C13.376 7.51467 13.056 7.93067 13.056 8.352V10.1173H15.4453L15.1733 12.5227H13.0293V18.6667H10.6027V12.5547H8.55467V10.0907H10.6347C10.6347 10.0907 10.6347 9.22667 10.6347 7.76533C10.6347 6.46933 12.0747 5.328 13.0773 5.328C13.2267 5.328 15.4453 5.34933 15.4453 5.34933V7.52533Z" fill="white"/>
</svg>
