<svg width="52" height="77" viewBox="0 0 52 77" fill="none" xmlns="http://www.w3.org/2000/svg">
<path d="M39.976 48.1831C41.5419 48.1054 43.8799 49.1127 43.8799 49.1127C43.8799 49.1127 40.2883 59.493 30.9189 66C21.5495 72.507 5.93393 77 5.93393 77C5.93393 77 2.73773 70.5151 1.56156 66C0.334716 61.2903 0 53.6056 0 53.6056C0 53.6056 2.0361 53.2606 3.27928 52.831C5.91647 51.9196 6.94473 50.4873 9.36937 49.1127C10.4625 48.493 11.3169 48.1657 12.6486 48.1831C13.9219 48.1997 14.621 48.5718 15.7718 49.1127C18.7387 50.507 20.1441 51.7465 22.3303 52.6761C23.6539 53.2388 25.2077 53.5938 26.7027 53.6056C28.1977 53.6175 29.2012 53.2958 30.9189 52.5211C33.1051 51.5352 36.8529 48.338 39.976 48.1831Z" fill="#EEBE43"/>
<path d="M1.09309 41.2113L0 49.7324C0 49.7324 4.91441 46.9846 8.43243 45.2394C9.99399 44.4648 11.1048 44.1727 12.6486 44.1549C14.313 44.1358 15.2887 44.2437 16.8649 44.7746C18.441 45.3056 19.5195 46.0141 21.0811 47.2535C22.2328 48.1677 22.9807 48.75 24.3604 49.2676C24.8288 49.4434 25.7561 49.7177 26.7027 49.7324C27.7083 49.748 28.2708 49.4917 29.2012 49.1127C29.908 48.8247 30.2473 48.5447 30.9189 48.1831C33.8921 46.5822 35.4474 45.8592 37.7898 44.7746C38.6477 44.3774 39.6539 44 40.6006 44C41.2252 44 41.8498 44 42.4745 44.1549C43.541 44.4195 45.4414 45.2394 45.4414 45.2394L47.003 38.5775L43.8799 36.7183C43.0382 36.2173 41.5933 35.9396 40.6006 35.9437C39.3434 35.9488 38.4144 36.2535 37.4775 36.7183C34.4464 38.2219 33.0807 39.9656 29.8258 40.9014C28.5737 41.2614 28.2643 41.3662 26.7027 41.3662C25.4293 41.3662 24.1846 40.9709 23.1111 40.5915C19.8736 39.4474 18.8949 38.1127 16.0841 36.7183C14.9596 36.1605 14.2181 35.9577 12.961 35.9437C11.6446 35.929 10.7547 36.2506 9.52553 36.7183C8.58859 37.0748 6.71472 38.2113 5.15315 39.1972C3.43544 40.2817 1.09309 41.2113 1.09309 41.2113Z" fill="#EEBE43"/>
<path d="M8.74475 32.5352L2.4985 36.4084C2.4985 36.4084 4.68469 29.2817 6.87087 26.8028C7.82733 25.7183 10.2064 23.5722 12.3363 23.5493C13.9952 23.5315 16.3964 24.7887 16.3964 24.7887L23.5796 28.9718C23.5796 28.9718 25.4694 29.7465 26.7027 29.7465C27.936 29.7465 29.8258 28.9718 29.8258 28.9718L37.4775 24.6338C37.4775 24.6338 39.7351 23.7396 41.2252 23.8592C42.3023 23.9455 43.8799 24.6338 43.8799 24.6338L48.8769 27.5775L47.9399 34.7042L43.8799 32.2253C43.8799 32.2253 41.9161 31.4021 40.6006 31.4507C39.4621 31.4927 37.7898 32.2253 37.7898 32.2253C37.7898 32.2253 33.8686 34.1533 31.2312 35.7887C29.982 36.5634 29.045 37.5635 26.7027 37.6479C24.3604 37.7322 23.1111 36.2535 21.5496 35.169C19.3805 33.6626 16.0841 32.2253 16.0841 32.2253C16.0841 32.2253 14.0242 31.4214 12.6486 31.4507C11.3917 31.4775 8.74475 32.5352 8.74475 32.5352Z" fill="#EEBE43"/>
<path d="M15.7718 19.5211C14.0601 19.0801 11.2432 19.5211 11.2432 19.5211C11.2432 19.5211 19.3634 10.5948 29.045 5.42253C39.1952 -7.62939e-06 52 0 52 0L49.6577 23.0845L44.973 20.2958C44.973 20.2958 42.7196 19.5637 41.2252 19.5211C39.4914 19.4718 36.0721 20.7606 36.0721 20.7606L30.7628 23.8592C30.7628 23.8592 28.1081 25.4084 26.7027 25.4084C25.2973 25.4084 22.3303 23.3944 22.3303 23.3944L19.3634 21.3803C19.3634 21.3803 17.303 19.9157 15.7718 19.5211Z" fill="#EEBE43"/>
</svg>
