<svg width="28" height="10" viewBox="0 0 28 10" fill="none" xmlns="http://www.w3.org/2000/svg">
<path fill-rule="evenodd" clip-rule="evenodd" d="M3.04461 0C3.68227 0.404506 4.31992 0.809012 4.95757 1.21352C4.13082 2.97327 3.30407 4.73301 2.47879 6.49276C1.65204 5.99377 0.825285 5.49331 0 4.99432V4.92346C1.01585 3.28329 2.03023 1.64165 3.04608 0.00147774L3.04461 0Z" fill="#989898"/>
<path fill-rule="evenodd" clip-rule="evenodd" d="M24.863 1.07015C25.6355 1.03915 26.1413 1.18383 26.4916 1.56914C26.4447 1.66363 26.3978 1.75959 26.3494 1.85407C25.7821 2.18624 25.2163 2.51988 24.649 2.85352C24.6021 2.8299 24.5552 2.80628 24.5068 2.78266C23.9337 2.51545 23.3371 2.80333 23.019 3.21079C23.0424 3.33037 23.0659 3.44847 23.0893 3.56805C24.7648 3.54738 25.8393 2.61584 27.5529 2.99672C29.7942 5.8696 22.9706 9.34481 21.3186 6.70666C22.0969 6.42174 22.8768 6.13534 23.6566 5.85041C24.6827 5.7515 25.0712 6.32726 25.8525 5.27908C25.829 5.1846 25.8056 5.08864 25.7821 4.99416C24.2708 5.05173 22.9808 5.73674 21.3904 5.35142C19.5053 2.8299 22.9207 1.62524 24.8616 1.07015H24.863Z" fill="#989898"/>
<path fill-rule="evenodd" clip-rule="evenodd" d="M7.6488 2.71169C10.2038 2.65707 12.0464 3.5458 12.6782 5.49452C11.8984 5.40003 11.12 5.30407 10.3401 5.20959C10.2067 4.28986 9.39466 3.96507 8.35682 4.21013C7.2926 5.15054 7.08591 8.49731 9.27739 7.49195C9.80656 7.26165 9.9854 6.82466 10.198 6.27843C11.0012 6.39801 11.8031 6.51611 12.6064 6.63569C12.1915 9.74035 7.7778 9.10111 6.01876 7.70601C4.73026 6.68441 4.83433 4.35629 6.01876 3.28302C6.58165 2.86227 7.03021 2.71021 7.64734 2.71169H7.6488Z" fill="#989898"/>
<path fill-rule="evenodd" clip-rule="evenodd" d="M17.2824 3.35405C18.977 3.295 20.05 3.63159 20.6114 4.70929V4.78015C19.88 4.94698 19.147 5.1138 18.4156 5.27914C17.923 4.7713 16.8764 4.35498 16.1493 5.20828C15.6026 5.88147 15.8019 7.55559 16.5041 7.91876C17.0845 8.36165 17.8497 8.01768 18.2748 7.7047C18.6486 7.28396 18.7205 6.95179 18.5577 6.34946C19.361 6.18264 20.1629 6.01582 20.9662 5.85047C21.3664 9.34044 15.563 10.6957 13.7409 8.20517C12.4583 6.45428 13.8802 4.37122 15.2991 3.78217C16.1053 3.44263 16.6653 3.34814 17.2824 3.35405Z" fill="#989898"/>
</svg>
