<svg width="70" height="104" viewBox="0 0 70 104" fill="none" xmlns="http://www.w3.org/2000/svg">
<path d="M53.8138 65.0785C55.9218 64.9736 59.0691 66.334 59.0691 66.334C59.0691 66.334 54.2342 80.3541 41.6216 89.1429C29.009 97.9316 7.98799 104 7.98799 104C7.98799 104 3.6854 95.2412 2.1021 89.1429C0.450579 82.7817 0 72.4024 0 72.4024C0 72.4024 2.7409 71.9364 4.41441 71.3561C7.96447 70.1252 9.34867 68.1906 12.6126 66.334C14.0841 65.497 15.2343 65.055 17.027 65.0785C18.741 65.1009 19.6821 65.6035 21.2312 66.334C25.2252 68.2173 27.1171 69.8913 30.0601 71.1469C31.8418 71.907 33.9335 72.3864 35.9459 72.4024C37.9584 72.4184 39.3093 71.9839 41.6216 70.9376C44.5646 69.606 49.6096 65.2877 53.8138 65.0785Z" fill="#EEE0CB"/>
<path d="M1.47147 55.662L0 67.171C0 67.171 6.61555 63.4598 11.3514 61.1026C13.4535 60.0563 14.9488 59.6618 17.027 59.6378C19.2676 59.612 20.581 59.7577 22.7027 60.4748C24.8244 61.192 26.2763 62.1489 28.3784 63.8229C29.9288 65.0577 30.9356 65.8442 32.7928 66.5433C33.4234 66.7806 34.6717 67.1512 35.9459 67.171C37.2997 67.1921 38.0569 66.8459 39.3093 66.334C40.2608 65.9451 40.7176 65.5669 41.6216 65.0785C45.6239 62.9163 47.7177 61.9396 50.8709 60.4748C52.0257 59.9384 53.3802 59.4286 54.6547 59.4286C55.4955 59.4286 56.3363 59.4286 57.1772 59.6378C58.6129 59.9951 61.1712 61.1026 61.1712 61.1026L63.2733 52.1046L59.0691 49.5936C57.936 48.9168 55.991 48.5418 54.6547 48.5473C52.9623 48.5542 51.7117 48.9658 50.4505 49.5936C46.3702 51.6244 44.5317 53.9795 40.1502 55.2435C38.4646 55.7297 38.048 55.8712 35.9459 55.8712C34.2318 55.8712 32.5562 55.3374 31.1111 54.825C26.753 53.2796 25.4354 51.4769 21.6517 49.5936C20.1379 48.8401 19.1397 48.5662 17.4474 48.5473C15.6754 48.5275 14.4774 48.9619 12.8228 49.5936C11.5616 50.0751 9.03904 51.61 6.93694 52.9417C4.62462 54.4064 1.47147 55.662 1.47147 55.662Z" fill="#EEE0CB"/>
<path d="M11.7718 43.9437L3.36336 49.175C3.36336 49.175 6.30631 39.5493 9.24925 36.2012C10.5368 34.7364 13.7394 31.8378 16.6066 31.8068C18.8396 31.7828 22.0721 33.4809 22.0721 33.4809L31.7417 39.1308C31.7417 39.1308 34.2857 40.1771 35.9459 40.1771C37.6062 40.1771 40.1502 39.1308 40.1502 39.1308L50.4505 33.2716C50.4505 33.2716 53.4895 32.0639 55.4955 32.2253C56.9454 32.342 59.0691 33.2716 59.0691 33.2716L65.7958 37.2475L64.5345 46.8732L59.0691 43.5252C59.0691 43.5252 56.4256 42.4133 54.6547 42.4789C53.1221 42.5357 50.8709 43.5252 50.8709 43.5252C50.8709 43.5252 45.5924 46.1292 42.042 48.338C40.3604 49.3843 39.0991 50.7352 35.9459 50.8491C32.7928 50.963 31.1111 48.9658 29.009 47.501C26.0891 45.4664 21.6517 43.5252 21.6517 43.5252C21.6517 43.5252 18.8787 42.4392 17.027 42.4789C15.335 42.5151 11.7718 43.9437 11.7718 43.9437Z" fill="#EEE0CB"/>
<path d="M21.2312 26.3662C18.927 25.7705 15.1351 26.3662 15.1351 26.3662C15.1351 26.3662 26.0661 14.3099 39.0991 7.32394C52.7628 0 70 0 70 0L66.8468 31.1791L60.5405 27.4125C60.5405 27.4125 57.5072 26.4237 55.4955 26.3662C53.1615 26.2995 48.5586 28.0402 48.5586 28.0402L41.4114 32.2253C41.4114 32.2253 37.8378 34.3179 35.9459 34.3179C34.0541 34.3179 30.0601 31.5976 30.0601 31.5976L26.0661 28.8773C26.0661 28.8773 23.2925 26.8991 21.2312 26.3662Z" fill="#EEE0CB"/>
</svg>
