<svg width="78" height="78" viewBox="0 0 78 78" fill="none" xmlns="http://www.w3.org/2000/svg">
<path d="M48.6021 61.4331L39.1817 77.0883C38.6369 76.453 41.5273 60.1096 43.0406 52.0173L48.6021 61.4331Z" fill="#05A7AB"/>
<path d="M42.1326 77.542L48.6021 67.1052C56.32 64.4582 71.7784 59.1869 71.8692 59.2776C71.9244 59.3328 67.7995 66.9254 59.8384 71.8699C54.7097 75.0552 47.3535 77.2017 42.1326 77.542Z" fill="#05A7AB"/>
<path d="M60.0654 47.9333L51.099 62.7944L74.2527 55.4206C74.2527 55.4206 76.1022 51.4409 76.7497 48.7274C77.3912 46.0386 77.5442 41.6939 77.5442 41.6939L60.0654 47.9333Z" fill="#05A7AB"/>
<path d="M50.3045 58.2566L44.0621 48.3871C44.0621 48.3871 46.0317 40.9129 48.375 36.589C49.8505 33.8663 53.142 31.1437 53.142 31.1437L58.0224 45.7779L50.3045 58.2566Z" fill="#05A7AB"/>
<path d="M73.0042 21.501L60.2924 42.6015L55.5254 28.9882C55.5254 28.9882 59.8862 26.1649 62.9028 24.7908C66.6783 23.0712 73.0042 21.501 73.0042 21.501Z" fill="#05A7AB"/>
<path d="M62.9028 43.509L77.7711 38.6309C77.7711 38.6309 77.7006 34.0156 77.0902 31.1437C76.4872 28.307 74.7067 24.1102 74.7067 24.1102L62.9028 43.509Z" fill="#05A7AB"/>
<path fill-rule="evenodd" clip-rule="evenodd" d="M16.6979 21.7302C11.8336 20.9082 5.03223 20.701 5.03223 20.701L8.23457 15.0968C8.23457 15.0968 10.1494 15.5815 11.4369 15.44C12.9444 15.2742 15.0967 14.525 15.0967 14.525C15.0967 14.525 16.9511 16.1094 19.4428 16.9267C21.7986 17.6994 25.2059 17.2925 26.8768 15.8974C28.9064 14.2027 30.168 11.4569 28.9355 8.57771C27.7177 5.73319 23.5601 3.20243 23.5601 3.20243C23.5601 3.20243 32.9127 -0.019318 39.1143 8.73114e-05C46.0476 0.0217818 56.3841 4.11739 56.3841 4.11739C56.3841 4.11739 54.0265 4.1548 52.3812 5.14663C50.424 6.32647 49.1424 8.62805 49.4076 10.6365C49.6442 12.4284 51.1696 14.0091 53.1818 14.6393C55.3943 15.3322 58.0997 14.9825 58.0997 14.9825C58.0997 14.9825 60.735 18.041 63.475 18.4135C67.478 18.9577 71.0234 16.698 71.0234 16.698L73.6539 20.701C73.6539 20.701 60.935 21.7648 51.9237 24.0176C50.469 24.3813 49.0424 24.8678 47.6208 25.3525C44.5717 26.3923 41.5454 27.4243 38.3138 27.22C34.9663 27.0084 32.6664 26.1293 29.7556 25.0166C29.4878 24.9142 29.2149 24.8099 28.9355 24.7039C24.6261 23.0694 21.4357 22.5305 16.9384 21.7708L16.6979 21.7302ZM15.783 7.89158C13.4376 9.71607 10.1789 13.0382 10.1789 13.0382C10.1789 13.0382 12.66 13.2809 14.0674 12.6951C14.9024 12.3476 16.0117 11.437 16.0117 11.437C16.0117 11.437 16.8343 13.5695 18.8709 14.525C21.615 15.8125 25.0358 14.9523 26.0762 13.4956C27.2199 11.8943 27.0496 9.7579 26.0762 8.57771C24.8337 7.07119 22.1877 6.97663 22.1877 6.97663C22.1877 6.97663 22.6237 5.79718 22.302 5.261C21.9589 4.68915 21.044 4.34613 21.044 4.34613C21.044 4.34613 17.7385 6.37034 15.783 7.89158ZM62.1026 7.66284C62.1026 7.66284 64.9264 9.63339 66.4486 11.2083C67.7527 12.5575 69.8797 14.9825 69.8797 14.9825C69.8797 14.9825 66.1055 16.698 63.475 16.0118C60.0822 15.1267 59.2434 12.1233 59.2434 12.1233C59.2434 12.1233 56.1951 13.332 54.6686 12.8094C52.9953 12.2365 51.93 11.0326 51.9237 9.26402C51.9163 7.17053 54.2916 6.35393 56.3841 6.29041C58.221 6.23465 60.6158 8.34906 60.6158 8.34906L62.1026 7.66284ZM39.1144 8.80655C42.937 8.80655 46.0566 12.0798 45.8622 15.8975C45.6775 19.526 42.7476 22.3022 39.1144 22.3022C35.4812 22.3022 32.5513 19.526 32.3666 15.8975C32.1722 12.0798 35.2918 8.80655 39.1144 8.80655Z" fill="#FBB90D"/>
<path d="M29.3665 42.3595C30.5168 42.4169 32.2343 41.6719 32.2343 41.6719C32.2343 41.6719 29.5959 33.9937 22.7132 29.1805C15.8304 24.3673 4.35909 21.0439 4.35909 21.0439C4.35909 21.0439 2.01115 25.8407 1.14713 29.1805C0.245884 32.6642 0 38.3485 0 38.3485C0 38.3485 1.49573 38.6037 2.40897 38.9215C4.34626 39.5956 5.10162 40.6551 6.88278 41.6719C7.68577 42.1303 8.31343 42.3723 9.29175 42.3595C10.2271 42.3472 10.7406 42.0719 11.586 41.6719C13.7656 40.6405 14.798 39.7237 16.404 39.0361C17.3762 38.6198 18.5177 38.3573 19.6159 38.3485C20.7141 38.3397 21.4513 38.5777 22.7132 39.1507C24.3191 39.88 27.0723 42.2449 29.3665 42.3595Z" fill="#01A9D4"/>
<path d="M0.802991 47.5165L0 41.2135C0 41.2135 3.61014 43.246 6.1945 44.5369C7.34163 45.1099 8.15763 45.3259 9.29175 45.3391C10.5144 45.3532 11.2312 45.2734 12.389 44.8807C13.5468 44.4879 14.3391 43.9639 15.4862 43.0471C16.3323 42.3709 16.8817 41.9401 17.8952 41.5573C18.2394 41.4273 18.9205 41.2243 19.6159 41.2135C20.3547 41.2019 20.7679 41.3915 21.4513 41.6719C21.9706 41.8849 22.2198 42.092 22.7132 42.3595C24.8972 43.5436 26.0398 44.0785 27.7605 44.8807C28.3907 45.1745 29.1299 45.4537 29.8254 45.4537C30.2842 45.4537 30.7431 45.4537 31.2019 45.3391C31.9854 45.1434 33.3815 44.5369 33.3815 44.5369L34.5286 49.4646L32.2343 50.8398C31.616 51.2105 30.5546 51.4159 29.8254 51.4128C28.9018 51.409 28.2194 51.1836 27.5311 50.8398C25.3045 49.7276 24.3012 48.4378 21.9102 47.7457C20.9903 47.4794 20.763 47.4019 19.6159 47.4019C18.6805 47.4019 17.7661 47.6942 16.9775 47.9749C14.5992 48.8212 13.8803 49.8084 11.8154 50.8398C10.9894 51.2525 10.4447 51.4025 9.52118 51.4128C8.55418 51.4237 7.90042 51.1858 6.99749 50.8398C6.30921 50.5761 4.93266 49.7355 3.78553 49.0063C2.52368 48.2041 0.802991 47.5165 0.802991 47.5165Z" fill="#01A9D4"/>
<path d="M6.42393 53.934L1.83541 51.069C1.83541 51.069 3.44139 56.3406 5.04737 58.1742C5.74999 58.9764 7.49768 60.5639 9.06232 60.5808C10.2809 60.594 12.0449 59.664 12.0449 59.664L17.3217 56.5698C17.3217 56.5698 18.7099 55.9968 19.6159 55.9968C20.5219 55.9968 21.9102 56.5698 21.9102 56.5698L27.5311 59.7786C27.5311 59.7786 29.1895 60.44 30.2842 60.3516C31.0755 60.2877 32.2343 59.7786 32.2343 59.7786L35.9052 57.6012L35.2169 52.3296L32.2343 54.1632C32.2343 54.1632 30.7918 54.7722 29.8254 54.7362C28.989 54.7051 27.7605 54.1632 27.7605 54.1632C27.7605 54.1632 24.88 52.7371 22.9426 51.5274C22.0249 50.9544 21.3366 50.2146 19.6159 50.1522C17.8952 50.0899 16.9775 51.1836 15.8304 51.9858C14.237 53.1001 11.8154 54.1632 11.8154 54.1632C11.8154 54.1632 10.3022 54.7579 9.29175 54.7362C8.36842 54.7164 6.42393 53.934 6.42393 53.934Z" fill="#01A9D4"/>
<path d="M11.586 63.5604C10.3286 63.8866 8.25933 63.5604 8.25933 63.5604C8.25933 63.5604 14.2244 70.1631 21.3366 73.989C28.793 78 38.1994 78 38.1994 78L36.4787 60.9246L33.0373 62.9874C33.0373 62.9874 31.382 63.5289 30.2842 63.5604C29.0106 63.5969 26.4987 62.6436 26.4987 62.6436L22.5985 60.3516C22.5985 60.3516 20.6483 59.2056 19.6159 59.2056C18.5835 59.2056 16.404 60.6954 16.404 60.6954L14.2244 62.1852C14.2244 62.1852 12.7109 63.2686 11.586 63.5604Z" fill="#01A9D4"/>
</svg>
