<svg width="37" height="32" viewBox="0 0 37 32" fill="none" xmlns="http://www.w3.org/2000/svg">
<g id="mandant" clip-path="url(#clip0_242_1572)">
<path id="Vector" d="M0.981354 30.8359H36.277C36.439 30.8359 36.5697 30.9646 36.5697 31.1239V31.1648C36.5697 31.3241 36.439 31.4527 36.277 31.4527H0.981354C0.81944 31.4527 0.688721 31.3241 0.688721 31.1648V31.1239C0.688721 30.9646 0.81944 30.8359 0.981354 30.8359Z" fill="#0072BB"/>
<path id="Vector_2" d="M1.58742 22.1895H2.80995C3.2333 22.1895 3.64922 22.378 3.64922 22.8545C3.64922 23.1088 3.52444 23.35 3.2734 23.4464V23.4523C3.5289 23.5122 3.60317 23.7928 3.62248 24.0179C3.62843 24.1173 3.63882 24.4637 3.72349 24.5499H3.10555C3.05207 24.471 3.04167 24.2386 3.03425 24.1728C3.01791 23.9346 2.9778 23.6905 2.68517 23.6905H2.21131V24.5499H1.58594V22.1895H1.58742ZM2.21131 23.214H2.73567C2.92284 23.214 3.02385 23.1146 3.02385 22.9363C3.02385 22.758 2.88273 22.682 2.70745 22.682H2.20982V23.214H2.21131Z" fill="#DD6B02"/>
<path id="Vector_3" d="M4.02954 22.1895H5.94131V22.682H4.65491V23.0956H5.83139V23.5721H4.65491V24.0223H5.97548V24.5514H4.03103V22.1909L4.02954 22.1895Z" fill="#DD6B02"/>
<path id="Vector_4" d="M8.56152 24.5493H8.15747L8.12034 24.2921C7.95545 24.5201 7.67322 24.599 7.45189 24.599C6.7255 24.599 6.2561 24.0539 6.2561 23.3698C6.2561 22.6858 6.72699 22.1406 7.45189 22.1406C7.94951 22.1406 8.47982 22.4023 8.53626 22.9927H7.91089C7.89158 22.791 7.68956 22.6683 7.43703 22.6683C7.03448 22.6683 6.87999 23.019 6.87999 23.3684C6.87999 23.7177 7.03448 24.0699 7.43703 24.0699C7.74601 24.0699 7.95397 23.9282 7.98813 23.7133H7.55141V23.2573H8.55855V24.5493H8.56152Z" fill="#DD6B02"/>
<path id="Vector_5" d="M8.97754 22.1895H9.60291V24.5499H8.97754V22.1895Z" fill="#DD6B02"/>
<path id="Vector_6" d="M11.1434 22.1396C11.8994 22.1396 12.3258 22.6848 12.3258 23.3689C12.3258 24.0529 11.8994 24.5981 11.1434 24.5981C10.3873 24.5981 9.96094 24.0529 9.96094 23.3689C9.96094 22.6848 10.3873 22.1396 11.1434 22.1396ZM11.1434 24.0704C11.5459 24.0704 11.7004 23.7196 11.7004 23.3689C11.7004 23.0181 11.5459 22.6687 11.1434 22.6687C10.7408 22.6687 10.5863 23.0195 10.5863 23.3689C10.5863 23.7182 10.7408 24.0704 11.1434 24.0704Z" fill="#DD6B02"/>
<path id="Vector_7" d="M12.6763 22.1895H13.318L14.1513 23.6437H14.1573V22.1895H14.7455V24.5499H14.1038L13.2704 23.0796H13.2645V24.5499H12.6763V22.1895Z" fill="#DD6B02"/>
<path id="Vector_8" d="M15.8403 22.1895H16.4746L17.3718 24.5499H16.7197L16.5712 24.1261H15.7349L15.5834 24.5499H14.9417L15.8389 22.1895H15.8403ZM15.8805 23.6701H16.4241L16.1582 22.8443H16.1523L15.8805 23.6701Z" fill="#DD6B02"/>
<path id="Vector_9" d="M17.5693 22.1895H18.1947V24.0208H19.3132V24.5499H17.5693V22.1895Z" fill="#DD6B02"/>
<path id="Vector_10" d="M20.4897 24.5499H19.7707L19.0146 22.1895H19.6668L20.1376 23.9448H20.1436L20.6145 22.1895H21.2666L20.4912 24.5499H20.4897Z" fill="#DD6B02"/>
<path id="Vector_11" d="M21.4597 22.1895H23.3715V22.682H22.0851V23.0956H23.2601V23.5721H22.0851V24.0223H23.4056V24.5514H21.4612V22.1909L21.4597 22.1895Z" fill="#DD6B02"/>
<path id="Vector_12" d="M23.7786 22.1895H25.0011C25.4245 22.1895 25.8404 22.378 25.8404 22.8545C25.8404 23.1088 25.7156 23.35 25.4646 23.4464V23.4523C25.7201 23.5122 25.7943 23.7928 25.8136 24.0179C25.8196 24.1173 25.83 24.4637 25.9147 24.5499H25.2967C25.2432 24.471 25.2328 24.2386 25.2254 24.1728C25.2091 23.9346 25.169 23.6905 24.8763 23.6905H24.4025V24.5499H23.7771V22.1895H23.7786ZM24.4025 23.214H24.9268C25.1155 23.214 25.2165 23.1146 25.2165 22.9363C25.2165 22.758 25.0754 22.682 24.9001 22.682H24.4025V23.214Z" fill="#DD6B02"/>
<path id="Vector_13" d="M26.219 22.1887H27.3405C27.7535 22.1829 28.2066 22.2881 28.2066 22.7807C28.2066 22.9926 28.0788 23.1636 27.8902 23.2571C28.1457 23.3302 28.3031 23.548 28.3031 23.8155C28.3031 24.3767 27.8827 24.5492 27.3688 24.5492H26.2161V22.1887H26.219ZM26.8444 23.1168H27.3287C27.4356 23.1168 27.5842 23.0613 27.5842 22.8917C27.5842 22.7222 27.4594 22.6637 27.3287 22.6637H26.8444V23.1168ZM26.8444 24.0566H27.345C27.5426 24.0566 27.6807 23.9865 27.6807 23.7921C27.6807 23.5831 27.5322 23.5144 27.345 23.5144H26.8444V24.0566Z" fill="#DD6B02"/>
<path id="Vector_14" d="M29.3132 22.1895H29.9475L30.8447 24.5499H30.1926L30.0441 24.1261H29.2078L29.0563 24.5499H28.4146L29.3118 22.1895H29.3132ZM29.3534 23.6701H29.897L29.6311 22.8443H29.6252L29.3534 23.6701Z" fill="#DD6B02"/>
<path id="Vector_15" d="M31.0364 22.1895H31.6781L32.5114 23.6437H32.5174V22.1895H33.1056V24.5499H32.4639L31.6306 23.0796H31.6246V24.5499H31.0364V22.1895Z" fill="#DD6B02"/>
<path id="Vector_16" d="M33.5498 22.1895H34.5807C35.316 22.1895 35.7557 22.6294 35.7557 23.3602C35.7557 24.1334 35.3086 24.5499 34.5807 24.5499H33.5498V22.1895ZM34.1737 24.0208H34.4693C34.9432 24.0106 35.1318 23.8294 35.1318 23.3558C35.1318 22.9261 34.8971 22.7186 34.4693 22.7186H34.1737V24.0208Z" fill="#DD6B02"/>
<path id="Vector_17" d="M1.58887 25.7295H4.70979C5.78228 25.7295 6.1789 26.2045 6.1789 27.0435C6.1789 27.7655 5.79268 28.3253 4.72019 28.3253H3.10105V29.4975H1.58887V25.7295ZM3.10105 27.4074H4.07699C4.45726 27.4074 4.60284 27.2905 4.60284 27.0172C4.60284 26.7438 4.45726 26.6167 4.07699 26.6167H3.10105V27.4089V27.4074Z" fill="#9DC327"/>
<path id="Vector_18" d="M9.70232 25.5977C10.6188 25.5977 12.3197 25.6605 12.3197 27.6132C12.3197 29.5659 10.6203 29.6288 9.70232 29.6288C8.78431 29.6288 7.08496 29.5659 7.08496 27.6132C7.08496 25.6605 8.78431 25.5977 9.70232 25.5977ZM9.70232 28.6787C10.3188 28.6787 10.7109 28.3776 10.7109 27.6132C10.7109 26.8488 10.3188 26.5477 9.70232 26.5477C9.08586 26.5477 8.6937 26.8488 8.6937 27.6132C8.6937 28.3776 9.08437 28.6787 9.70232 28.6787Z" fill="#9DC327"/>
<path id="Vector_19" d="M13.4946 25.7295H15.2207L16.7552 27.8181H16.7715V25.7295H18.2198V29.4975H16.5621L14.9533 27.3869H14.9429V29.4975H13.4946V25.7295Z" fill="#9DC327"/>
<path id="Vector_20" d="M22.3214 27.3482H24.4723V29.4953H23.8232L23.6509 29.1518C23.2587 29.4953 22.7655 29.6268 21.8966 29.6268C20.8345 29.6268 19.3921 29.3681 19.3921 27.6273C19.3921 25.9757 20.7334 25.5957 21.8906 25.5957C23.5751 25.5957 24.3728 26.0503 24.4916 27.0208H22.7863C22.7433 26.8249 22.6304 26.7051 22.4907 26.6364C22.3466 26.5677 22.1743 26.5457 21.9753 26.5457C21.3588 26.5457 20.9667 26.8468 20.9667 27.6113C20.9667 28.3084 21.3425 28.6768 22.0926 28.6768C22.5858 28.6768 22.8324 28.4868 22.9393 28.2017H22.3169V27.3467L22.3214 27.3482Z" fill="#9DC327"/>
<path id="Vector_21" d="M26.8861 25.7295H28.7414L30.371 29.4975H28.7622L28.6018 29.0649H27.0258L26.8653 29.4975H25.2566L26.8861 25.7295ZM27.819 26.8695H27.8086L27.3585 28.147H28.2706L27.8205 26.8695H27.819Z" fill="#9DC327"/>
<path id="Vector_22" d="M31.1211 25.7295H32.6333V28.0096C32.6333 28.4948 32.917 28.6483 33.4117 28.6483C33.9063 28.6483 34.1885 28.4948 34.1885 28.0096V25.7295H35.7007V28.0666C35.7007 29.2651 34.9669 29.629 33.4117 29.629C31.8564 29.629 31.1211 29.2651 31.1211 28.0666V25.7295Z" fill="#9DC327"/>
<path id="Vector_23" d="M11.1062 11.626L11.6038 11.5646L11.7984 11.1203L13.4398 10.9537L14.1632 11.1203V10.4553L14.5524 10.2886L14.7188 10.6496L15.2194 10.5663L15.3828 10.7403C15.8804 10.0562 16.592 9.53444 17.4208 9.26697L17.1133 8.76564L16.6127 8.29208L16.7242 7.90329L17.4476 7.34789L19.2271 6.544L19.4856 5.51211C19.2197 5.48434 18.9508 5.46973 18.679 5.46973C14.9253 5.46973 11.791 8.124 11.1107 11.626H11.1062Z" fill="#0072BB"/>
<path id="Vector_24" d="M28.4813 17.0267L28.1486 17.3877L26.9795 17.3322L26.6186 17.0823L25.4421 17.474C25.0722 18.0192 24.637 18.519 24.1468 18.959L24.1156 18.997L24.1082 18.9926C23.3684 19.6488 22.5039 20.1721 21.5562 20.5273H27.7534C28.6625 19.4603 29.3785 18.2325 29.8553 16.8937L29.5657 16.749L28.4813 17.0267Z" fill="#0072BB"/>
<path id="Vector_25" d="M22.5605 18.6365L22.1431 18.2754L17.8605 17.4993H16.8044L16.1642 17.1105L14.9684 16.7495L14.4678 16.2497V15.7498L13.8276 15.4443V15.0555L14.3549 14.6667L14.0222 14.335L13.9003 14.3788L12.1594 15.0015L11.436 14.8626L11.2102 14.943C11.9618 17.8121 14.3831 20.0279 17.3897 20.5263H19.9595C21.3662 20.2925 22.6452 19.683 23.685 18.8045L23.1725 18.578L22.5605 18.6335V18.6365Z" fill="#0072BB"/>
<path id="Vector_26" d="M8.68202 12.2577L10.2417 12.1743L10.6101 12.0779C11.1003 8.12717 14.5287 5.05634 18.6746 5.05634C18.9821 5.05634 19.2851 5.07534 19.5837 5.1075L19.6134 4.99057L19.9417 5.15427C20.2239 5.19812 20.5017 5.25658 20.7736 5.3282L20.8359 5.04611L21.0588 5.18496L21.1984 4.51994L21.032 4.10338L21.2266 3.74236L22.1446 4.38108L22.2842 4.90872L23.3404 5.13089L23.7578 4.57548L24.6446 4.99203L24.7278 4.21592L25.1452 3.74382L25.6458 3.79937L25.6518 3.64297C23.6939 2.23399 21.2831 1.39941 18.6761 1.39941C12.7492 1.39941 7.8264 5.70383 6.96484 11.3018L8.18291 11.4538L8.6835 12.2577H8.68202Z" fill="#0072BB"/>
<path id="Vector_27" d="M10.7689 14.9018L10.7422 14.8916L9.04283 15.1693L8.9032 15.8066L8.56898 16.0843L8.04016 16.2231L7.31675 15.9732L7.45638 15.6399L7.11621 15.6019C7.53659 17.445 8.40112 19.1259 9.59394 20.5261H15.7912C13.3001 19.5936 11.3928 17.4889 10.7674 14.9004L10.7689 14.9018Z" fill="#0072BB"/>
<path id="Vector_28" d="M34.6638 0.251953H2.59455C1.54582 0.251953 0.688721 1.0953 0.688721 2.12719V18.6521C0.688721 19.684 1.54582 20.5273 2.59455 20.5273H9.05772C7.91244 19.1037 7.08505 17.4214 6.68398 15.5842H6.17893L6.26211 14.9747L5.81648 14.697L4.89847 15.5286L3.84232 15.0565L3.70269 14.5026L2.61831 14.1693L2.72972 13.4765L2.45195 12.6171L3.17536 11.6744L3.39817 10.7316L4.23299 11.2578L4.87322 12.2839L5.40204 12.2561L5.17922 12.9489L5.90264 12.5879L6.40323 11.2286L6.54881 11.2461C7.43413 5.44795 12.5352 0.985678 18.6745 0.985678C21.2725 0.985678 23.6819 1.78664 25.6665 3.14739L25.6992 2.24558L26.3944 2.38443L26.534 2.68991L26.8682 2.60659L26.9796 2.30112L28.7592 3.16054L29.2048 3.07723L29.8451 3.63118L31.5132 3.88111L31.9024 3.02169L32.9036 2.96615L33.1814 3.43678L33.5423 3.46456L33.8766 5.15563L33.4874 5.6555L33.6537 6.87594L33.9315 6.90371L34.5703 7.70759L34.8763 8.42816L34.7931 9.42643L34.5435 9.59305L34.6832 10.4525L34.2108 10.8135L32.96 10.1207L32.2931 10.1485L31.9321 10.8427L32.9615 10.815L33.1843 11.48L32.5723 12.3116L32.2663 12.8115V13.2558L31.9886 13.3114L32.4891 14.4763L32.2663 14.8373H31.4315L30.9591 15.7245L30.5967 15.8911C30.5165 16.217 30.4229 16.5371 30.3159 16.8528L30.4585 17.1948L30.2372 17.0838C29.7827 18.3407 29.1216 19.5013 28.2957 20.5288H34.6683C35.717 20.5288 36.5741 19.6854 36.5741 18.6535V2.12719C36.5741 1.0953 35.717 0.251953 34.6683 0.251953H34.6638Z" fill="#0072BB"/>
<path id="Vector_29" d="M15.7676 10.9249L16.5534 10.6486L16.8594 11.0374L16.6648 11.3429L17.666 12.0357L17.8056 11.3429L17.972 11.0374L17.8324 10.5112L17.36 10.4557L17.6333 9.63574C16.8772 9.85791 16.2281 10.3183 15.7661 10.9263L15.7676 10.9249Z" fill="#0072BB"/>
<path id="Vector_30" d="M7.31975 15.973L8.04316 16.223L8.57198 16.0841L8.9062 15.8064L9.04583 15.1692L10.7452 14.8915L10.7719 14.9017C10.6278 14.3068 10.5506 13.6886 10.5506 13.0513C10.5506 12.721 10.5729 12.3965 10.613 12.0779L10.2446 12.1743L8.68487 12.2576L8.18428 11.4538L6.96621 11.3018C6.87857 11.8732 6.83252 12.4579 6.83252 13.0528C6.83252 13.9297 6.93502 14.7818 7.12218 15.6047L7.46235 15.6427L7.32272 15.976L7.31975 15.973Z" fill="#9DC327"/>
<path id="Vector_31" d="M17.8338 10.5099L17.9734 11.0361L17.8071 11.3416L17.6674 12.0344L16.6663 11.3416L16.8608 11.0361L16.5548 10.6473L15.769 10.9236C15.3175 11.5184 15.0471 12.2536 15.0471 13.0517C15.0471 15.0204 16.6752 16.6224 18.6761 16.6224C20.677 16.6224 22.3035 15.0204 22.3035 13.0517C22.3035 11.0829 20.6755 9.48242 18.6761 9.48242C18.3151 9.48242 17.966 9.5365 17.6363 9.63297L17.3629 10.4529L17.8353 10.5085L17.8338 10.5099ZM19.8347 13.0531C19.8347 13.6831 19.3148 14.1946 18.6746 14.1946C18.0344 14.1946 17.5144 13.6831 17.5144 13.0531C17.5144 12.4232 18.0344 11.9116 18.6746 11.9116C19.3148 11.9116 19.8347 12.4232 19.8347 13.0531Z" fill="#9DC327"/>
<path id="Vector_32" d="M17.4446 7.34847L16.7212 7.90388L16.6098 8.29267L17.1104 8.76477L17.4178 9.26902C17.813 9.14186 18.2348 9.0717 18.673 9.0717C20.9057 9.0717 22.7209 10.8578 22.7209 13.0546C22.7209 15.2514 20.9057 17.0374 18.673 17.0374C16.4404 17.0374 14.6252 15.2499 14.6252 13.0546C14.6252 12.1922 14.906 11.3942 15.3813 10.7409L15.2179 10.5669L14.7173 10.6502L14.5509 10.2892L14.1617 10.4558V11.1209L13.4383 10.9542L11.7969 11.1209L11.6023 11.5652L11.1047 11.6266C11.0156 12.0885 10.9666 12.5649 10.9666 13.0531C10.9666 13.7064 11.0512 14.3408 11.2102 14.9459L11.436 14.8655L12.1594 15.0043L13.9003 14.3817L14.0221 14.3379L14.3549 14.6696L13.8275 15.0584V15.4472L14.4677 15.7527V16.2526L14.9683 16.7524L16.1641 17.1134L16.8044 17.5022H17.8605L22.143 18.2783L22.5605 18.6394L23.1725 18.5838L23.6849 18.8104C25.3338 17.4189 26.381 15.3551 26.381 13.056C26.381 9.14332 23.3537 5.91464 19.4811 5.51562L19.2227 6.54752L17.4431 7.3514L17.4446 7.34847Z" fill="#9DC327"/>
<path id="Vector_33" d="M19.6132 4.99023L19.5835 5.10716C19.7038 5.12032 19.8227 5.13493 19.9415 5.15393L19.6132 4.99023Z" fill="#4E809C"/>
<path id="Vector_34" d="M30.4555 17.1936L30.3129 16.8516C30.2861 16.929 30.2609 17.0065 30.2327 17.0825L30.454 17.1936H30.4555Z" fill="#4E809C"/>
<path id="Vector_35" d="M24.1156 18.997L24.1468 18.959C24.1334 18.9707 24.12 18.9824 24.1082 18.9926L24.1156 18.997Z" fill="#9DC327"/>
<path id="Vector_36" d="M25.6502 3.6416L25.6442 3.79799L25.1436 3.74245L24.7262 4.21454L24.643 4.99065L23.7562 4.5741L23.3388 5.12951L22.2827 4.90734L22.143 4.3797L21.225 3.74098L21.0304 4.102L21.1968 4.51856L21.0572 5.18359L20.8344 5.04473L20.772 5.32682C24.239 6.23886 26.7999 9.355 26.7999 13.0499C26.7999 14.684 26.2978 16.2041 25.4407 17.4713L26.6172 17.0796L26.9782 17.3295L28.1472 17.385L28.48 17.024L29.5643 16.7463L29.854 16.891C30.2833 15.6867 30.518 14.3946 30.518 13.0485C30.518 9.18692 28.5973 5.76092 25.6487 3.63867L25.6502 3.6416Z" fill="#9DC327"/>
<path id="Vector_37" d="M30.9399 13.0512C30.9399 14.029 30.8181 14.9791 30.5938 15.8897L30.9562 15.723L31.4286 14.8358H32.2634L32.4862 14.4748L31.9856 13.3099L32.2634 13.2544V12.8101L32.5694 12.3102L33.1814 11.4785L32.9586 10.8135L31.9292 10.8413L32.2901 10.147L32.9571 10.1193L34.2079 10.8121L34.6802 10.451L34.5406 9.59162L34.7902 9.42499L34.8733 8.42672L34.5673 7.70615L33.9286 6.90227L33.6508 6.8745L33.4844 5.65406L33.8736 5.15419L33.5394 3.46312L33.1784 3.43535L32.9007 2.96471L31.8995 3.02025L31.5103 3.87967L29.8421 3.62974L29.2019 3.07579L28.7563 3.1591L26.9767 2.29968L26.8653 2.60516L26.5311 2.68847L26.3914 2.38299L25.6963 2.24414L25.6636 3.14595C28.8469 5.32812 30.9354 8.9529 30.9354 13.0498L30.9399 13.0512Z" fill="#9DC327"/>
<path id="Vector_38" d="M6.5473 11.2489L6.40173 11.2313L5.90113 12.5906L5.17772 12.9516L5.40054 12.2588L4.87172 12.2866L4.23149 11.2606L3.39667 10.7344L3.17385 11.6771L2.45044 12.6198L2.72822 13.4793L2.61681 14.1721L3.70119 14.5053L3.84082 15.0593L4.89697 15.5314L5.81497 14.6997L6.26061 14.9774L6.17742 15.5869H6.68248C6.50422 14.7699 6.40915 13.9221 6.40915 13.0525C6.40915 12.4401 6.45669 11.8379 6.54581 11.2503L6.5473 11.2489Z" fill="#9DC327"/>
<path id="Vector_39" d="M17.5144 13.0526C17.5144 13.6826 18.0343 14.1942 18.6745 14.1942C19.3148 14.1942 19.8347 13.6826 19.8347 13.0526C19.8347 12.4227 19.3148 11.9111 18.6745 11.9111C18.0343 11.9111 17.5144 12.4227 17.5144 13.0526Z" fill="#DD6B02"/>
<path id="Vector_40" d="M15.7571 10.9289L15.7675 10.9245C16.228 10.3165 16.8787 9.85611 17.6347 9.63395L17.6392 9.62226L17.4208 9.26562C16.592 9.53164 15.8804 10.0549 15.3828 10.7389L15.6101 10.9815L15.7586 10.9289H15.7571Z" fill="white"/>
<path id="Vector_41" d="M18.6746 17.0351C20.9072 17.0351 22.7224 15.2475 22.7224 13.0522C22.7224 10.8569 20.9072 9.06934 18.6746 9.06934C18.2364 9.06934 17.8145 9.13949 17.4194 9.26665L17.6377 9.62328L17.6333 9.63498C17.9631 9.53705 18.3121 9.48443 18.6731 9.48443C20.674 9.48443 22.3006 11.0849 22.3006 13.0537C22.3006 15.0224 20.6725 16.6244 18.6731 16.6244C16.6737 16.6244 15.0442 15.0224 15.0442 13.0537C15.0442 12.2556 15.3145 11.5204 15.7661 10.9256L15.7557 10.93L15.6071 10.9826L15.3799 10.7399C14.9045 11.3933 14.6238 12.1913 14.6238 13.0537C14.6238 15.2505 16.4405 17.0365 18.6716 17.0365L18.6746 17.0351Z" fill="#0072BB"/>
<path id="Vector_42" d="M11.2102 14.9438L11.0468 15.0022L10.7676 14.9014C11.393 17.4899 13.3003 19.5946 15.7914 20.5271H17.3882C14.3832 20.0287 11.9619 17.8129 11.2088 14.9438H11.2102Z" fill="white"/>
<path id="Vector_43" d="M20.7245 5.54552L20.7735 5.3292C20.5017 5.25759 20.2239 5.19912 19.9417 5.15527L20.726 5.54552H20.7245Z" fill="white"/>
<path id="Vector_44" d="M19.9595 20.5269H21.5549C22.5026 20.1718 23.3656 19.6485 24.1069 18.9923L23.6835 18.8066C22.6437 19.6836 21.3662 20.2946 19.958 20.5284L19.9595 20.5269Z" fill="white"/>
<path id="Vector_45" d="M10.9369 11.647L11.1063 11.6251C11.7866 8.12454 14.9209 5.46881 18.6746 5.46881C18.9479 5.46881 19.2168 5.48343 19.4812 5.5112L19.5822 5.1078C19.2836 5.07564 18.9806 5.05664 18.6731 5.05664C14.5272 5.05664 11.0988 8.12747 10.6086 12.0782L10.879 12.008L10.934 11.647H10.9369Z" fill="white"/>
<path id="Vector_46" d="M24.147 18.9586C24.6372 18.5187 25.0724 18.0188 25.4423 17.4736L25.3665 17.4985L24.147 18.9586Z" fill="#0072BB"/>
<path id="Vector_47" d="M19.9417 5.15419C19.8228 5.13519 19.704 5.12058 19.5837 5.10742L19.4827 5.51082C23.3537 5.90984 26.3826 9.13852 26.3826 13.0512C26.3826 15.3518 25.3353 17.4141 23.6865 18.8056L24.1098 18.9912C24.1232 18.9795 24.1366 18.9693 24.1485 18.9576L25.368 17.4974L25.4438 17.4726C26.3023 16.2054 26.8029 14.6838 26.8029 13.0512C26.8029 9.3563 24.242 6.24016 20.775 5.32812L20.726 5.54444L19.9417 5.15419Z" fill="#0072BB"/>
<path id="Vector_48" d="M11.2101 14.9443C11.0512 14.3392 10.9665 13.7049 10.9665 13.0515C10.9665 12.5633 11.0155 12.0869 11.1046 11.625L10.9353 11.6469L10.8803 12.0079L10.61 12.0781C10.5699 12.3982 10.5476 12.7227 10.5476 13.0515C10.5476 13.6888 10.6263 14.307 10.7689 14.9019L11.0482 15.0028L11.2116 14.9443H11.2101Z" fill="#0072BB"/>
<path id="Vector_49" d="M29.8556 16.8936C29.3787 18.2324 28.6613 19.4601 27.7537 20.5271H28.2929C29.1188 19.4996 29.7798 18.3391 30.2344 17.0821L29.8556 16.8936Z" fill="white"/>
<path id="Vector_50" d="M7.11934 15.6035L6.95743 15.5859H6.68262C7.08369 17.4232 7.91108 19.104 9.05636 20.5291H9.59558C8.40276 19.1289 7.53823 17.448 7.11785 15.6049L7.11934 15.6035Z" fill="white"/>
<path id="Vector_51" d="M30.1777 16.5279L30.3129 16.8524C30.4199 16.5367 30.5134 16.2166 30.5937 15.8906L30.2327 16.0572L30.1777 16.5293V16.5279Z" fill="white"/>
<path id="Vector_52" d="M18.6745 1.39948C21.28 1.39948 23.6909 2.23405 25.6502 3.64304L25.668 3.14901C23.6835 1.78826 21.2726 0.987305 18.676 0.987305C12.5352 0.987305 7.43566 5.44958 6.54736 11.2507L6.96477 11.3033C7.82485 5.7039 12.7491 1.39948 18.6745 1.39948Z" fill="white"/>
<path id="Vector_53" d="M30.5194 13.0508C30.5194 14.3969 30.2832 15.689 29.8554 16.8933L30.2342 17.0819C30.2624 17.0059 30.2877 16.9284 30.3144 16.851L30.1793 16.5265L30.2342 16.0544L30.5952 15.8878C30.8195 14.9772 30.9413 14.0271 30.9413 13.0493C30.9413 8.95099 28.8527 5.32622 25.6694 3.14551L25.6516 3.63953C28.6002 5.76178 30.5209 9.18777 30.5209 13.0493L30.5194 13.0508Z" fill="#0072BB"/>
<path id="Vector_54" d="M7.11922 15.6036C6.93206 14.7822 6.82956 13.9286 6.82956 13.0517C6.82956 12.4568 6.87561 11.8722 6.96325 11.3007L6.54584 11.248C6.45523 11.8371 6.40918 12.4378 6.40918 13.0502C6.40918 13.9199 6.50573 14.7661 6.6825 15.5846H6.95731L7.11922 15.6022V15.6036Z" fill="#0072BB"/>
</g>
<defs>
<clipPath id="clip0_242_1572">
<rect width="35.881" height="31.2008" fill="white" transform="translate(0.688721 0.251953)"/>
</clipPath>
</defs>
</svg>
