<svg width="917" height="367" viewBox="0 0 917 367" fill="none" xmlns="http://www.w3.org/2000/svg">
<rect x="12.7158" y="57.8711" width="141.571" height="309.128" fill="#F0CBCB"/>
<rect x="167.003" y="176.098" width="161.493" height="190.902" fill="#F0E1CB"/>
<path d="M167.003 57.8718C167.003 57.8718 251.564 49.6825 329.132 49.6826C329.132 49.6826 329.132 137.201 329.132 167.909C266.823 167.909 167.003 176.098 167.003 176.098V57.8718Z" fill="#F0E1CB"/>
<path d="M341.636 94.7217V40.4707H389.956C408.183 40.4707 445.907 45.8958 473.034 49.1713C498.466 52.2421 532.305 52.0715 550.813 52.2421C550.39 69.8993 550.602 107.517 550.602 107.517C550.602 107.517 452.929 102.347 433.191 98.8161C410.302 94.7217 368.904 95.2335 341.636 94.7217Z" fill="#E9F0CB"/>
<path d="M563.317 84.3685V40.4707H599.043C612.518 40.4707 640.409 44.8605 660.465 47.5109C679.268 49.9957 703.502 49.8576 717.187 49.9957C718.127 64.9044 716.969 93.6981 716.969 93.6981C716.969 93.6981 645.6 90.5385 631.007 87.6815C614.085 84.3685 583.478 84.7826 563.317 84.3685Z" fill="#CCF0CB"/>
<path d="M341.212 156.013V94.7217C356.047 97.2807 368.763 97.6598 388.261 99.8397C411.15 102.399 443.163 103.587 470.067 109.052C515.421 118.265 573.49 153.579 720.572 153.579V212.18C720.572 212.18 657.84 216.531 589.649 200.079C524.797 181.654 461.533 167.736 452.265 165.862C429.391 161.236 368.462 156.591 341.212 156.013Z" fill="#E9F0CB"/>
<path d="M655.085 292.788V242.12C665.258 242.12 670.98 240.073 677.762 237.514C684.544 234.955 693.423 227.833 697.472 225.486C701.52 223.14 715.415 219.515 721.208 219.089V269.757C714.638 269.757 708.026 270.986 701.922 272.828C694.293 275.131 680.941 285.623 675.219 288.95C670.641 291.611 659.889 292.532 655.085 292.788Z" fill="#CCF0CB"/>
<path d="M652.117 226.51V219.857C668.012 221.392 681.417 218.321 688.57 216.018C694.928 213.971 713.79 211.668 720.572 212.18V218.321C720.572 218.321 691.749 220.624 684.543 222.672C677.337 224.719 662.502 227.278 652.117 226.51Z" fill="#CCF0CB"/>
<path d="M733.287 218.322V153.579C753.774 152.214 801.953 157.929 833.107 165.094C869.073 173.366 904.105 170.98 904.105 170.98V235.467C904.105 235.467 829.505 232.396 799.834 222.672C783.789 217.413 748.546 217.98 733.287 218.322Z" fill="#CBE7F0"/>
<path d="M733.287 225.998V219.129C753.774 218.841 785.835 222.123 796.867 226.766C833.955 242.376 899.231 246.726 899.231 246.726V254.403C899.231 254.403 813.186 243.144 795.383 232.396C782.409 224.563 748.546 225.926 733.287 225.998Z" fill="#CBE7F0"/>
<path d="M563.317 96.7687V85.5308C583.804 85.2433 613.451 87.2597 627.321 96.0011C670.767 123.383 719.512 120.823 719.512 120.823V132.083C719.512 132.083 669.072 135.154 621.599 106.237C608.648 98.3484 578.577 96.6969 563.317 96.7687Z" fill="#CCF0CB"/>
<path d="M729.049 49.6826L798.987 50.7062C798.987 54.0329 798.987 84.4852 798.987 84.4852H729.049V49.6826Z" fill="#CBE7F0"/>
<path d="M798.987 84.4849V75.2725C791.994 76.0402 780.21 79.7763 776.311 82.4377C771.436 85.7644 761.475 93.6973 752.362 100.863C745.072 106.595 735.619 108.881 731.805 109.307V116.984C737.809 115.534 750.328 112.378 752.362 111.355C754.905 110.075 775.136 93.3076 780.761 89.6029C785.424 86.5321 794.325 85.2526 798.987 84.4849Z" fill="#CBE7F0"/>
<path d="M811.704 50.7063V74.5051C812.835 74.5051 818.485 74.9441 824.842 71.4343C832.472 67.2221 835.44 60.9424 835.44 51.2181V21.5336C835.44 3.36464 823.995 0.0379177 815.095 0.0379177H608.46H458.2C418.145 -0.0473826 335.45 0.0378887 325.106 0.0379177C314.508 0.0379475 311.329 9.76214 311.755 16.1597C311.825 19.0599 311.754 26.9562 311.755 35.3523C311.755 44.0529 318.466 48.4032 321.927 49.6827H329.769V38.9349C329.133 39.0202 327.317 38.9349 325.106 38.9349C322.775 38.9349 320.709 38.4231 320.656 34.8404C320.585 30.0636 320.486 20.0494 320.656 16.1597C320.825 12.27 323.694 11.2976 325.106 11.2976H376.606H543.186C540.077 13.1742 530.045 18.4628 530.257 32.5373C530.435 44.3088 539.088 50.3651 543.186 51.9858H550.815V40.7262C550.038 40.8968 546.868 40.7262 545.305 40.7262C542.761 40.7262 541.49 38.4231 541.49 36.6318V26.1398C541.49 22.6596 542.973 21.7895 545.305 21.5336H684.121C726.649 21.4483 812.383 21.3289 815.095 21.5336C818.486 21.7895 818.486 25.3721 818.486 27.1634C818.486 28.9548 818.698 43.5411 818.486 46.8678C818.274 50.1945 816.365 50.7063 815.093 50.7063H811.704Z" fill="#CBCFF0"/>
<path d="M731.805 121.847V109.564C752.292 109.276 789.28 111.319 804.498 115.705C841.798 126.457 902.199 126.457 902.199 126.457V137.717C902.199 137.717 832.685 136.693 800.471 126.457C783.026 120.914 747.488 120.056 731.805 121.847Z" fill="#CBE7F0"/>
<rect y="57.8711" width="12.716" height="309.128" fill="#8D6565"/>
<rect x="154.287" y="57.8711" width="12.716" height="309.128" fill="#8D7165"/>
<rect x="328.92" y="39.4463" width="12.716" height="128.462" fill="#8D7F65"/>
<rect x="550.602" y="40.4707" width="12.716" height="67.0461" fill="#858D65"/>
<rect x="798.987" y="50.7061" width="12.716" height="33.7789" fill="#65758D"/>
<rect x="719.301" y="109.052" width="12.716" height="23.0311" fill="#658D88"/>
<rect x="901.986" y="126.453" width="12.716" height="11.2596" fill="#65758D"/>
<rect x="720.571" y="153.578" width="12.716" height="116.179" fill="#658D88"/>
<rect x="642.58" y="242.12" width="12.716" height="50.6684" fill="#858D65"/>
<rect x="904.105" y="170.979" width="12.716" height="64.4871" fill="#65758D"/>
<rect x="899.02" y="246.727" width="12.716" height="7.67703" fill="#65758D"/>
<rect x="639.613" y="219.601" width="12.716" height="7.16523" fill="#858D65"/>
<rect x="328.496" y="176.098" width="12.716" height="190.902" fill="#8D7F65"/>
<path d="M444.211 163.303C444.211 163.303 466.587 191.842 484.69 203.223C504.064 215.403 538.733 220.625 538.733 220.625V225.743C538.733 225.743 501.994 220.625 481.723 206.806C463.606 194.455 440.82 163.303 440.82 163.303H444.211Z" fill="#E9F0CB"/>
<path d="M434.038 160.488C434.038 160.488 452.644 191.708 478.756 221.393C504.188 252.357 539.581 248.262 539.581 248.262V250.31C539.581 250.31 503.34 254.66 477.273 222.672C461.603 203.444 432.555 160.488 432.555 160.488H434.038Z" fill="#E9F0CB"/>
<rect x="716.333" y="49.6826" width="12.716" height="44.015" fill="#658D88"/>
<rect x="538.733" y="220.625" width="12.716" height="5.11802" fill="#858D65"/>
<rect x="539.581" y="248.262" width="12.716" height="2.04721" fill="#858D65"/>
</svg>
