<svg width="36" height="32" viewBox="0 0 36 32" fill="none" xmlns="http://www.w3.org/2000/svg">
<g clip-path="url(#clip0_242_1572)">
<path d="M0.293605 30.6855H35.7065C35.8689 30.6855 36.0001 30.8146 36.0001 30.9744V31.0155C36.0001 31.1753 35.8689 31.3044 35.7065 31.3044H0.293605C0.131153 31.3044 0 31.1753 0 31.0155V30.9744C0 30.8146 0.131153 30.6855 0.293605 30.6855Z" fill="#0072BB"/>
<path d="M0.901686 22.0103H2.12827C2.55303 22.0103 2.97033 22.1995 2.97033 22.6776C2.97033 22.9327 2.84514 23.1747 2.59327 23.2715V23.2774C2.84961 23.3375 2.92413 23.619 2.9435 23.8449C2.94947 23.9446 2.9599 24.2921 3.04485 24.3787H2.42485C2.3712 24.2995 2.36077 24.0663 2.35331 24.0003C2.33692 23.7613 2.29668 23.5164 2.00308 23.5164H1.52765V24.3787H0.900196V22.0103H0.901686ZM1.52765 23.0383H2.05375C2.24154 23.0383 2.34288 22.9386 2.34288 22.7597C2.34288 22.5808 2.2013 22.5045 2.02543 22.5045H1.52615V23.0383H1.52765Z" fill="#DD6B02"/>
<path d="M3.35191 22.0103H5.27003V22.5045H3.97936V22.9195H5.15974V23.3976H3.97936V23.8493H5.30431V24.3801H3.3534V22.0118L3.35191 22.0103Z" fill="#DD6B02"/>
<path d="M7.89894 24.3781H7.49355L7.45629 24.12C7.29086 24.3487 7.00769 24.4279 6.78562 24.4279C6.05683 24.4279 5.58587 23.8809 5.58587 23.1946C5.58587 22.5083 6.05832 21.9614 6.78562 21.9614C7.2849 21.9614 7.81697 22.2238 7.8736 22.8163H7.24615C7.22678 22.6139 7.02408 22.4907 6.77072 22.4907C6.36683 22.4907 6.21183 22.8427 6.21183 23.1932C6.21183 23.5437 6.36683 23.8971 6.77072 23.8971C7.08072 23.8971 7.28937 23.7548 7.32365 23.5393H6.88548V23.0817H7.89596V24.3781H7.89894Z" fill="#DD6B02"/>
<path d="M8.31634 22.0103H8.94379V24.3787H8.31634V22.0103Z" fill="#DD6B02"/>
<path d="M10.4893 21.9604C11.2479 21.9604 11.6757 22.5074 11.6757 23.1937C11.6757 23.88 11.2479 24.427 10.4893 24.427C9.73074 24.427 9.303 23.88 9.303 23.1937C9.303 22.5074 9.73074 21.9604 10.4893 21.9604ZM10.4893 23.8976C10.8932 23.8976 11.0482 23.5456 11.0482 23.1937C11.0482 22.8417 10.8932 22.4912 10.4893 22.4912C10.0855 22.4912 9.93045 22.8432 9.93045 23.1937C9.93045 23.5441 10.0855 23.8976 10.4893 23.8976Z" fill="#DD6B02"/>
<path d="M12.0274 22.0103H12.6712L13.5073 23.4695H13.5133V22.0103H14.1035V24.3787H13.4596L12.6235 22.9034H12.6175V24.3787H12.0274V22.0103Z" fill="#DD6B02"/>
<path d="M15.2019 22.0103H15.8383L16.7385 24.3787H16.0842L15.9352 23.9534H15.0961L14.9441 24.3787H14.3003L15.2004 22.0103H15.2019ZM15.2422 23.4959H15.7877L15.5209 22.6673H15.5149L15.2422 23.4959Z" fill="#DD6B02"/>
<path d="M16.9367 22.0103H17.5641V23.8478H18.6864V24.3787H16.9367V22.0103Z" fill="#DD6B02"/>
<path d="M19.8667 24.3787H19.1454L18.3868 22.0103H19.0411L19.5135 23.7716H19.5195L19.9919 22.0103H20.6462L19.8682 24.3787H19.8667Z" fill="#DD6B02"/>
<path d="M20.84 22.0103H22.7581V22.5045H21.4674V22.9195H22.6463V23.3976H21.4674V23.8493H22.7924V24.3801H20.8415V22.0118L20.84 22.0103Z" fill="#DD6B02"/>
<path d="M23.1665 22.0103H24.3931C24.8179 22.0103 25.2352 22.1995 25.2352 22.6776C25.2352 22.9327 25.11 23.1747 24.8581 23.2715V23.2774C25.1145 23.3375 25.189 23.619 25.2084 23.8449C25.2143 23.9446 25.2247 24.2921 25.3097 24.3787H24.6897C24.636 24.2995 24.6256 24.0663 24.6182 24.0003C24.6018 23.7613 24.5615 23.5164 24.2679 23.5164H23.7925V24.3787H23.165V22.0103H23.1665ZM23.7925 23.0383H24.3186C24.5079 23.0383 24.6092 22.9386 24.6092 22.7597C24.6092 22.5808 24.4676 22.5045 24.2918 22.5045H23.7925V23.0383Z" fill="#DD6B02"/>
<path d="M25.6151 22.0096H26.7403C27.1546 22.0037 27.6092 22.1093 27.6092 22.6035C27.6092 22.8161 27.481 22.9877 27.2918 23.0816C27.5481 23.1549 27.7061 23.3734 27.7061 23.6418C27.7061 24.2049 27.2843 24.3779 26.7686 24.3779H25.6121V22.0096H25.6151ZM26.2425 22.9408H26.7284C26.8357 22.9408 26.9847 22.8851 26.9847 22.715C26.9847 22.5448 26.8596 22.4862 26.7284 22.4862H26.2425V22.9408ZM26.2425 23.8837H26.7448C26.943 23.8837 27.0816 23.8133 27.0816 23.6183C27.0816 23.4086 26.9326 23.3397 26.7448 23.3397H26.2425V23.8837Z" fill="#DD6B02"/>
<path d="M28.7196 22.0103H29.356L30.2562 24.3787H29.6019L29.4528 23.9534H28.6138L28.4617 24.3787H27.8179L28.7181 22.0103H28.7196ZM28.7598 23.4959H29.3053L29.0385 22.6673H29.0326L28.7598 23.4959Z" fill="#DD6B02"/>
<path d="M30.4484 22.0103H31.0923L31.9284 23.4695H31.9343V22.0103H32.5245V24.3787H31.8807L31.0446 22.9034H31.0386V24.3787H30.4484V22.0103Z" fill="#DD6B02"/>
<path d="M32.9702 22.0103H34.0045C34.7423 22.0103 35.1834 22.4517 35.1834 23.185C35.1834 23.9607 34.7348 24.3787 34.0045 24.3787H32.9702V22.0103ZM33.5962 23.8478H33.8927C34.3682 23.8375 34.5574 23.6557 34.5574 23.1806C34.5574 22.7494 34.322 22.5412 33.8927 22.5412H33.5962V23.8478Z" fill="#DD6B02"/>
<path d="M0.903135 25.5621H4.03442C5.11047 25.5621 5.5084 26.0387 5.5084 26.8805C5.5084 27.6049 5.12091 28.1666 4.04485 28.1666H2.42034V29.3427H0.903135V25.5621ZM2.42034 27.2456H3.39952C3.78106 27.2456 3.92711 27.1283 3.92711 26.8541C3.92711 26.5799 3.78106 26.4523 3.39952 26.4523H2.42034V27.2471V27.2456Z" fill="#9DC327"/>
<path d="M9.04353 25.4299C9.96309 25.4299 11.6696 25.4929 11.6696 27.4521C11.6696 29.4113 9.96458 29.4743 9.04353 29.4743C8.12247 29.4743 6.41748 29.4113 6.41748 27.4521C6.41748 25.4929 8.12247 25.4299 9.04353 25.4299ZM9.04353 28.5212C9.66203 28.5212 10.0555 28.2191 10.0555 27.4521C10.0555 26.6851 9.66203 26.3831 9.04353 26.3831C8.42502 26.3831 8.03156 26.6851 8.03156 27.4521C8.03156 28.2191 8.42353 28.5212 9.04353 28.5212Z" fill="#9DC327"/>
<path d="M12.8484 25.5621H14.5802L16.1198 27.6577H16.1362V25.5621H17.5893V29.3427H15.9261L14.312 27.2251H14.3015V29.3427H12.8484V25.5621Z" fill="#9DC327"/>
<path d="M21.7045 27.1862H23.8626V29.3404H23.2113L23.0384 28.9958C22.6449 29.3404 22.1501 29.4724 21.2783 29.4724C20.2126 29.4724 18.7655 29.2128 18.7655 27.4663C18.7655 25.8092 20.1113 25.4279 21.2723 25.4279C22.9624 25.4279 23.7627 25.884 23.8819 26.8577H22.171C22.1278 26.6612 22.0145 26.5409 21.8744 26.472C21.7298 26.4031 21.557 26.3811 21.3572 26.3811C20.7387 26.3811 20.3453 26.6832 20.3453 27.4501C20.3453 28.1496 20.7223 28.5192 21.475 28.5192C21.9698 28.5192 22.2172 28.3286 22.3245 28.0426H21.7V27.1847L21.7045 27.1862Z" fill="#9DC327"/>
<path d="M26.2844 25.5621H28.1459L29.7808 29.3427H28.1667L28.0058 28.9086H26.4245L26.2635 29.3427H24.6494L26.2844 25.5621ZM27.2204 26.706H27.2099L26.7583 27.9877H27.6734L27.2218 26.706H27.2204Z" fill="#9DC327"/>
<path d="M30.5334 25.5621H32.0506V27.8498C32.0506 28.3367 32.3353 28.4906 32.8316 28.4906C33.3279 28.4906 33.6111 28.3367 33.6111 27.8498V25.5621H35.1283V27.907C35.1283 29.1095 34.392 29.4746 32.8316 29.4746C31.2712 29.4746 30.5334 29.1095 30.5334 27.907V25.5621Z" fill="#9DC327"/>
<path d="M10.4521 11.4118L10.9513 11.3502L11.1466 10.9044L12.7935 10.7372L13.5193 10.9044V10.2372L13.9097 10.07L14.0767 10.4322L14.5789 10.3486L14.7429 10.5231C15.2421 9.83684 15.956 9.31331 16.7877 9.04495L16.4792 8.54196L15.9769 8.06682L16.0887 7.67675L16.8145 7.11949L18.6 6.31294L18.8593 5.27763C18.5925 5.24976 18.3228 5.2351 18.05 5.2351C14.2838 5.2351 11.1391 7.89818 10.4565 11.4118H10.4521Z" fill="#0072BB"/>
<path d="M27.8849 16.8305L27.551 17.1927L26.3781 17.137L26.0159 16.8862L24.8356 17.2792C24.4644 17.8262 24.0278 18.3277 23.5359 18.7691L23.5046 18.8073L23.4972 18.8029C22.755 19.4613 21.8876 19.9863 20.9367 20.3426H27.1546C28.0667 19.2721 28.7851 18.0403 29.2635 16.697L28.9728 16.5518L27.8849 16.8305Z" fill="#0072BB"/>
<path d="M21.9444 18.4455L21.5256 18.0833L17.2288 17.3046H16.1692L15.5268 16.9146L14.3271 16.5524L13.8248 16.0508V15.5493L13.1825 15.2428V14.8527L13.7116 14.4627L13.3777 14.1298L13.2555 14.1738L11.5088 14.7985L10.783 14.6592L10.5564 14.7398C11.3106 17.6185 13.7399 19.8416 16.7564 20.3417H19.3347C20.7461 20.107 22.0294 19.4955 23.0726 18.6142L22.5584 18.3869L21.9444 18.4426V18.4455Z" fill="#0072BB"/>
<path d="M8.01984 12.0456L9.58474 11.962L9.95435 11.8652C10.4462 7.90137 13.886 4.82034 18.0456 4.82034C18.3541 4.82034 18.6582 4.83941 18.9577 4.87167L18.9875 4.75435L19.3169 4.9186C19.6001 4.96259 19.8788 5.02125 20.1515 5.0931L20.2141 4.81008L20.4377 4.94939L20.5778 4.28215L20.4108 3.86421L20.6061 3.502L21.5271 4.14284L21.6672 4.67223L22.7269 4.89513L23.1457 4.33788L24.0354 4.75582L24.1189 3.97713L24.5377 3.50347L25.04 3.55919L25.0459 3.40228C23.0816 1.98862 20.6627 1.15127 18.0471 1.15127C12.1005 1.15127 7.16138 5.46998 6.29696 11.0865L7.51907 11.239L8.02133 12.0456H8.01984Z" fill="#0072BB"/>
<path d="M10.1137 14.6985L10.0868 14.6883L8.38185 14.9669L8.24176 15.6063L7.90642 15.8849L7.37585 16.0242L6.65003 15.7734L6.79013 15.4391L6.44883 15.401C6.87061 17.2502 7.73801 18.9366 8.93478 20.3414H15.1526C12.6533 19.4058 10.7396 17.2941 10.1122 14.6971L10.1137 14.6985Z" fill="#0072BB"/>
<path d="M34.0879 0H1.91216C0.859948 0 0 0.846145 0 1.88146V18.4612C0 19.4965 0.859948 20.3427 1.91216 20.3427H8.39679C7.24771 18.9143 6.41757 17.2265 6.01517 15.3831H5.50844L5.5919 14.7716L5.14479 14.493L4.22373 15.3274L3.16407 14.8537L3.02398 14.2979L1.936 13.9636L2.04778 13.2685L1.76908 12.4062L2.49489 11.4604L2.71845 10.5145L3.55604 11.0424L4.1984 12.0719L4.72897 12.044L4.50541 12.7391L5.23123 12.3769L5.73349 11.0131L5.87954 11.0307C6.76781 5.21325 11.8858 0.736161 18.0455 0.736161C20.6522 0.736161 23.0696 1.53978 25.0607 2.90505L25.0935 2.00025L25.791 2.13956L25.9311 2.44605L26.2664 2.36246L26.3782 2.05597L28.1637 2.91825L28.6108 2.83466L29.2531 3.39045L30.9268 3.64121L31.3173 2.77893L32.3218 2.72321L32.6005 3.19541L32.9627 3.22327L33.298 4.91996L32.9076 5.42149L33.0745 6.64598L33.3532 6.67384L33.994 7.48039L34.3011 8.20335L34.2176 9.20494L33.9672 9.37212L34.1073 10.2344L33.6334 10.5966L32.3785 9.90151L31.7093 9.92937L31.3471 10.6259L32.38 10.5981L32.6035 11.2653L31.9895 12.0997L31.6825 12.6013V13.0471L31.4038 13.1028L31.906 14.2715L31.6825 14.6338H30.8449L30.3709 15.5239L30.0073 15.6911C29.9268 16.0181 29.8329 16.3392 29.7256 16.656L29.8687 16.9992L29.6466 16.8877C29.1905 18.1489 28.5273 19.3132 27.6987 20.3441H34.0924C35.1446 20.3441 36.0046 19.498 36.0046 18.4627V1.88146C36.0046 0.846145 35.1446 0 34.0924 0H34.0879Z" fill="#0072BB"/>
<path d="M15.1289 10.7084L15.9174 10.4312L16.2244 10.8213L16.0291 11.1278L17.0337 11.8229L17.1737 11.1278L17.3407 10.8213L17.2006 10.2934L16.7266 10.2376L17.0009 9.41495C16.2423 9.63785 15.591 10.0998 15.1275 10.7098L15.1289 10.7084Z" fill="#0072BB"/>
<path d="M6.65304 15.7733L7.37886 16.0241L7.90943 15.8847L8.24477 15.6061L8.38486 14.9667L10.0899 14.6881L10.1167 14.6984C9.97211 14.1015 9.89462 13.4812 9.89462 12.8418C9.89462 12.5104 9.91697 12.1849 9.95721 11.8652L9.5876 11.962L8.0227 12.0456L7.52044 11.239L6.29833 11.0865C6.2104 11.6599 6.1642 12.2465 6.1642 12.8433C6.1642 13.7232 6.26704 14.5781 6.45482 15.4037L6.79612 15.4419L6.65602 15.7762L6.65304 15.7733Z" fill="#9DC327"/>
<path d="M17.202 10.292L17.3421 10.82L17.1752 11.1264L17.0351 11.8215L16.0306 11.1264L16.2258 10.82L15.9188 10.4299L15.1304 10.707C14.6773 11.3039 14.4061 12.0415 14.4061 12.8422C14.4061 14.8175 16.0395 16.4248 18.0471 16.4248C20.0546 16.4248 21.6866 14.8175 21.6866 12.8422C21.6866 10.8669 20.0531 9.26112 18.0471 9.26112C17.6849 9.26112 17.3347 9.31538 17.0038 9.41216L16.7296 10.2348L17.2035 10.2906L17.202 10.292ZM19.2096 12.8437C19.2096 13.4757 18.6879 13.989 18.0456 13.989C17.4032 13.989 16.8816 13.4757 16.8816 12.8437C16.8816 12.2116 17.4032 11.6984 18.0456 11.6984C18.6879 11.6984 19.2096 12.2116 19.2096 12.8437Z" fill="#9DC327"/>
<path d="M16.8115 7.12009L16.0857 7.67734L15.9739 8.06742L16.4762 8.54108L16.7847 9.04701C17.1811 8.91943 17.6044 8.84904 18.044 8.84904C20.2841 8.84904 22.1053 10.641 22.1053 12.8451C22.1053 15.0492 20.2841 16.8412 18.044 16.8412C15.804 16.8412 13.9828 15.0477 13.9828 12.8451C13.9828 11.9799 14.2644 11.1792 14.7414 10.5237L14.5774 10.3492L14.0752 10.4328L13.9082 10.0706L13.5178 10.2378V10.905L12.7919 10.7378L11.1451 10.905L10.9498 11.3508L10.4506 11.4124C10.3611 11.8758 10.312 12.3539 10.312 12.8437C10.312 13.4992 10.3969 14.1356 10.5564 14.7427L10.7829 14.6621L11.5087 14.8014L13.2555 14.1767L13.3777 14.1327L13.7115 14.4656L13.1824 14.8556V15.2457L13.8248 15.5522V16.0537L14.327 16.5553L15.5268 16.9175L16.1691 17.3076H17.2288L21.5256 18.0862L21.9444 18.4485L22.5584 18.3927L23.0726 18.62C24.7269 17.224 25.7776 15.1533 25.7776 12.8466C25.7776 8.92089 22.7402 5.68149 18.8548 5.28115L18.5955 6.31647L16.81 7.12302L16.8115 7.12009Z" fill="#9DC327"/>
<path d="M18.9873 4.75401L18.9575 4.87133C19.0782 4.88453 19.1975 4.89919 19.3167 4.91826L18.9873 4.75401Z" fill="#4E809C"/>
<path d="M29.8656 16.9979L29.7225 16.6547C29.6957 16.7324 29.6704 16.8102 29.642 16.8864L29.8641 16.9979H29.8656Z" fill="#4E809C"/>
<path d="M23.5046 18.8073L23.5359 18.7691C23.5225 18.7809 23.5091 18.7926 23.4972 18.8029L23.5046 18.8073Z" fill="#9DC327"/>
<path d="M25.0443 3.4009L25.0384 3.55781L24.5361 3.50208L24.1173 3.97575L24.0339 4.75444L23.1441 4.3365L22.7253 4.89375L21.6657 4.67085L21.5256 4.14146L20.6045 3.50062L20.4093 3.86283L20.5762 4.28077L20.4361 4.94801L20.2125 4.80869L20.1499 5.09172C23.6285 6.00679 26.1979 9.13327 26.1979 12.8405C26.1979 14.48 25.6941 16.0051 24.8342 17.2765L26.0146 16.8835L26.3767 17.1343L27.5497 17.19L27.8835 16.8278L28.9715 16.5491L29.2621 16.6943C29.6928 15.486 29.9283 14.1896 29.9283 12.839C29.9283 8.96463 28.0013 5.52726 25.0429 3.39796L25.0443 3.4009Z" fill="#9DC327"/>
<path d="M30.3516 12.8418C30.3516 13.8228 30.2294 14.776 30.0043 15.6896L30.368 15.5225L30.8419 14.6323H31.6795L31.9031 14.2701L31.4008 13.1013L31.6795 13.0456V12.5998L31.9865 12.0983L32.6006 11.2639L32.377 10.5966L31.3442 10.6245L31.7064 9.92793L32.3755 9.90007L33.6304 10.5952L34.1044 10.233L33.9643 9.37067L34.2147 9.2035L34.2981 8.20191L33.9911 7.47895L33.3502 6.6724L33.0715 6.64453L32.9046 5.42004L33.2951 4.91852L32.9598 3.22183L32.5976 3.19396L32.3189 2.72176L31.3144 2.77749L30.9239 3.63977L29.2502 3.389L28.6079 2.83322L28.1607 2.9168L26.3753 2.05453L26.2635 2.36102L25.9282 2.4446L25.7881 2.13812L25.0906 1.9988L25.0578 2.90361C28.2517 5.09302 30.3471 8.72983 30.3471 12.8403L30.3516 12.8418Z" fill="#9DC327"/>
<path d="M5.87803 11.0334L5.73197 11.0158L5.22972 12.3796L4.5039 12.7418L4.72746 12.0467L4.19689 12.0746L3.55453 11.0452L2.71694 10.5172L2.49338 11.4631L1.76757 12.409L2.04627 13.2712L1.93449 13.9663L3.02247 14.3007L3.16256 14.8565L4.22222 15.3301L5.14328 14.4957L5.59039 14.7743L5.50693 15.3859H6.01366C5.83481 14.5661 5.73943 13.7156 5.73943 12.843C5.73943 12.2286 5.78712 11.6244 5.87654 11.0349L5.87803 11.0334Z" fill="#9DC327"/>
<path d="M16.8816 12.8432C16.8816 13.4752 17.4032 13.9885 18.0455 13.9885C18.6879 13.9885 19.2095 13.4752 19.2095 12.8432C19.2095 12.2112 18.6879 11.6979 18.0455 11.6979C17.4032 11.6979 16.8816 12.2112 16.8816 12.8432Z" fill="#DD6B02"/>
<path d="M15.1185 10.7124L15.1289 10.708C15.5909 10.098 16.2437 9.63605 17.0023 9.41315L17.0068 9.40142L16.7877 9.0436C15.9561 9.3105 15.2422 9.83549 14.7429 10.5218L14.9709 10.7652L15.1199 10.7124H15.1185Z" fill="white"/>
<path d="M18.0456 16.8388C20.2856 16.8388 22.1069 15.0454 22.1069 12.8428C22.1069 10.6401 20.2856 8.84666 18.0456 8.84666C17.6059 8.84666 17.1827 8.91705 16.7862 9.04463L17.0053 9.40245L17.0008 9.41418C17.3317 9.31593 17.6819 9.26313 18.0441 9.26313C20.0516 9.26313 21.6836 10.8689 21.6836 12.8442C21.6836 14.8195 20.0502 16.4268 18.0441 16.4268C16.0381 16.4268 14.4031 14.8195 14.4031 12.8442C14.4031 12.0435 14.6744 11.3059 15.1274 10.7091L15.117 10.7135L14.968 10.7663L14.7399 10.5228C14.263 11.1783 13.9813 11.979 13.9813 12.8442C13.9813 15.0483 15.8041 16.8403 18.0426 16.8403L18.0456 16.8388Z" fill="#0072BB"/>
<path d="M10.5565 14.7406L10.3925 14.7992L10.1123 14.6981C10.7398 17.2951 12.6534 19.4068 15.1528 20.3424H16.7549C13.7399 19.8424 11.3106 17.6192 10.555 14.7406H10.5565Z" fill="white"/>
<path d="M20.1023 5.31115L20.1515 5.09411C19.8787 5.02225 19.6 4.9636 19.3169 4.9196L20.1038 5.31115H20.1023Z" fill="white"/>
<path d="M19.3348 20.3423H20.9354C21.8863 19.986 22.7522 19.461 23.4959 18.8025L23.0711 18.6163C22.0279 19.4962 20.7461 20.1091 19.3333 20.3438L19.3348 20.3423Z" fill="white"/>
<path d="M10.2822 11.4329L10.4521 11.4109C11.1347 7.89873 14.2794 5.23418 18.0456 5.23418C18.3198 5.23418 18.5896 5.24885 18.8549 5.27671L18.9562 4.87197C18.6567 4.83971 18.3526 4.82064 18.0441 4.82064C13.8845 4.82064 10.4447 7.90167 9.95286 11.8655L10.2241 11.7951L10.2793 11.4329H10.2822Z" fill="white"/>
<path d="M23.5361 18.7688C24.028 18.3274 24.4646 17.8259 24.8358 17.2789L24.7597 17.3038L23.5361 18.7688Z" fill="#0072BB"/>
<path d="M19.3169 4.91852C19.1976 4.89945 19.0784 4.88479 18.9577 4.87159L18.8563 5.27633C22.7403 5.67667 25.7792 8.91608 25.7792 12.8418C25.7792 15.15 24.7284 17.2191 23.0741 18.6152L23.4989 18.8015C23.5123 18.7897 23.5257 18.7795 23.5376 18.7677L24.7612 17.3027L24.8372 17.2778C25.6987 16.0064 26.2009 14.4798 26.2009 12.8418C26.2009 9.13458 23.6315 6.00809 20.153 5.09303L20.1038 5.31006L19.3169 4.91852Z" fill="#0072BB"/>
<path d="M10.5563 14.7411C10.3969 14.134 10.3119 13.4976 10.3119 12.8421C10.3119 12.3523 10.3611 11.8742 10.4505 11.4108L10.2806 11.4328L10.2255 11.795L9.95422 11.8654C9.91398 12.1866 9.89162 12.5121 9.89162 12.8421C9.89162 13.4814 9.97061 14.1018 10.1137 14.6986L10.3939 14.7998L10.5578 14.7411H10.5563Z" fill="#0072BB"/>
<path d="M29.2637 16.6969C28.7853 18.0401 28.0654 19.272 27.1548 20.3425H27.6958C28.5245 19.3115 29.1877 18.1472 29.6437 16.886L29.2637 16.6969Z" fill="white"/>
<path d="M6.45197 15.4025L6.28952 15.3849H6.0138C6.4162 17.2282 7.24634 18.9147 8.39542 20.3445H8.93643C7.73966 18.9396 6.87226 17.2532 6.45048 15.404L6.45197 15.4025Z" fill="white"/>
<path d="M29.5869 16.33L29.7226 16.6555C29.8299 16.3388 29.9238 16.0176 30.0042 15.6906L29.6421 15.8578L29.5869 16.3314V16.33Z" fill="white"/>
<path d="M18.0455 1.15133C20.6597 1.15133 23.0786 1.98868 25.0444 3.40234L25.0622 2.90668C23.0711 1.54141 20.6522 0.737793 18.047 0.737793C11.8858 0.737793 6.76934 5.21488 5.8781 11.0352L6.29689 11.088C7.15982 5.47005 12.1004 1.15133 18.0455 1.15133Z" fill="white"/>
<path d="M29.9297 12.8413C29.9297 14.1919 29.6928 15.4883 29.2636 16.6966L29.6436 16.8858C29.6719 16.8096 29.6972 16.7318 29.7241 16.6541L29.5885 16.3286L29.6436 15.8549L30.0058 15.6877C30.2308 14.7741 30.353 13.8209 30.353 12.8399C30.353 8.72792 28.2575 5.09111 25.0637 2.90316L25.0458 3.39882C28.0042 5.52812 29.9312 8.96549 29.9312 12.8399L29.9297 12.8413Z" fill="#0072BB"/>
<path d="M6.45185 15.4026C6.26407 14.5785 6.16123 13.7221 6.16123 12.8422C6.16123 12.2454 6.20743 11.6588 6.29537 11.0854L5.87657 11.0326C5.78566 11.6236 5.73945 12.2263 5.73945 12.8407C5.73945 13.7133 5.83633 14.5624 6.01368 15.3836H6.2894L6.45185 15.4012V15.4026Z" fill="#0072BB"/>
</g>
<defs>
<clipPath id="clip0_242_1572">
<rect width="35.881" height="31.2008" fill="white" transform="scale(1.00332)"/>
</clipPath>
</defs>
</svg>
