<svg width="12" height="11" viewBox="0 0 12 11" fill="none" xmlns="http://www.w3.org/2000/svg">
<mask id="mask0_0_16" style="mask-type:alpha" maskUnits="userSpaceOnUse" x="-3" y="-4" width="18" height="18">
<rect x="-2.06608" y="-3.09407" width="16.5286" height="16.5286" fill="#D9D9D9"/>
</mask>
<g mask="url(#mask0_0_16)">
<path d="M11.57 5.80709L0.96417 10.2836C0.734606 10.3754 0.51652 10.3553 0.309912 10.2233C0.103304 10.0913 0 9.89908 0 9.64655V0.693549C0 0.441028 0.103304 0.248768 0.309912 0.116769C0.51652 -0.0152307 0.734606 -0.0353176 0.96417 0.0565081L11.57 4.53301C11.857 4.65927 12.0005 4.87162 12.0005 5.17005C12.0005 5.46848 11.857 5.68083 11.57 5.80709ZM1.37739 8.61352L9.5384 5.17005L1.37739 1.72659V4.13701L5.50954 5.17005L1.37739 6.20309V8.61352Z" fill="#6D4100"/>
</g>
</svg>
