<svg width="42" height="15" viewBox="0 0 42 15" fill="none" xmlns="http://www.w3.org/2000/svg">
<path fill-rule="evenodd" clip-rule="evenodd" d="M24.8169 3.21052C24.2019 3.53108 23.3789 4.09999 22.8771 4.60681C23.9395 4.76997 25.0019 4.93314 26.0643 5.09486V5.30423C25.9725 5.62911 25.8793 5.95544 25.7876 6.28177C24.0399 5.69987 21.9351 5.65511 19.6211 5.65366C19.5981 5.28113 19.5752 4.91004 19.5523 4.5375C20.3838 3.93249 21.2154 3.32748 22.047 2.72392C22.024 2.67771 22.0011 2.6315 21.9781 2.58385C21.1466 2.11891 20.315 1.65396 19.4834 1.18757V0.0714038C22.186 -0.150962 24.6793 0.163816 26.6894 0.768825C26.5976 1.14136 26.5044 1.51245 26.4127 1.88499C25.3044 1.69872 24.1947 1.51245 23.0864 1.32618" fill="#989898"/>
<path fill-rule="evenodd" clip-rule="evenodd" d="M15.1871 0.69761C15.2101 0.544552 17.7621 -0.0243587 18.1664 0.209559C18.1664 0.209559 18.5363 3.93203 18.7213 5.79182C17.9585 5.90878 17.1972 6.02429 16.4345 6.14125" fill="#989898"/>
<path fill-rule="evenodd" clip-rule="evenodd" d="M13.5931 1.18638C13.7738 1.12862 14.8362 5.44888 15.0484 6.55926C14.3329 6.81484 13.6161 7.07042 12.9006 7.32744C12.3458 6.00191 11.9974 5.16731 11.444 3.84178C10.7085 4.22153 10.0518 4.50888 9.36792 4.84964C10.0604 6.15208 10.4762 6.9318 11.1687 8.23423C10.5651 8.56056 9.66757 9.10492 9.16003 9.42115C8.14351 7.93245 5.99577 5.04746 6.11191 4.95505C8.39872 3.14724 10.373 2.22024 13.5946 1.18638H13.5931Z" fill="#979797"/>
<path fill-rule="evenodd" clip-rule="evenodd" d="M34.4137 5.0243C34.8295 5.24667 30.7505 3.15441 30.7204 3.22805C30.6458 3.40998 30.4795 3.84605 30.4308 3.97745C31.3656 4.48716 32.7348 5.16437 33.4101 5.65242C33.2022 5.9542 32.9943 6.25743 32.7864 6.55921C31.8402 6.04805 30.8925 5.53546 29.9462 5.0243C29.9232 5.09361 29.9003 5.16437 29.8774 5.23367C29.7154 5.60621 29.5533 5.9773 29.3928 6.34984C30.5096 6.79168 31.9032 7.61039 32.6488 8.23417C32.6029 8.28038 32.557 8.32659 32.5097 8.37424C32.3477 8.62981 32.1857 8.88539 32.0251 9.14241C30.3376 8.24284 28.8307 7.1339 26.759 6.56065C27.2895 4.77017 27.8214 2.97825 28.3519 1.18776C30.881 1.9646 33.1678 2.9537 35.003 4.39763" fill="#989898"/>
<path fill-rule="evenodd" clip-rule="evenodd" d="M41.9999 12.5604H41.9311C41.2787 12.3539 38.5403 11.6305 37.7044 11.9323C37.1969 12.1156 36.4743 12.8261 36.1115 13.0484C35.5811 12.4434 35.0491 11.8384 34.5187 11.2348C35.0033 10.7468 35.4893 10.2573 35.9739 9.76925C35.9051 8.18814 35.8348 6.60559 35.766 5.02448C36.6521 5.58617 37.7058 6.42365 38.3295 7.2568C38.2378 8.09429 38.1446 8.93177 38.0528 9.76925C38.9131 9.72882 40.0299 9.58443 40.6852 9.90931" fill="#989898"/>
<path fill-rule="evenodd" clip-rule="evenodd" d="M2.57642 10.187C2.7155 10.2794 3.12268 10.587 3.26175 10.6794C4.01303 9.81302 4.78724 9.00008 5.6991 8.09762C5.95287 8.3532 5.99445 8.39507 6.24822 8.65065C5.69337 9.20945 5.18582 9.83612 4.63097 10.3935C4.40014 10.7184 4.12342 10.9768 3.89259 11.3017C4.2625 11.5804 4.63097 11.8605 5.00087 12.1392C5.00087 12.093 5.06969 12.0915 5.06969 12.0453C5.42956 11.745 7.5988 9.41882 7.77228 9.27876C7.98017 9.58054 8.18807 9.88377 8.39596 10.1856C8.07337 10.4642 7.74934 10.7444 7.42532 11.023C6.46041 11.9558 5.13851 13.4806 4.3772 14.7917C4.35426 14.8379 4.33132 14.8841 4.30838 14.9318C2.80726 13.9788 1.50112 13.1485 0 12.1941C1.43374 9.92853 2.74991 7.97489 4.79441 5.99958C5.04818 6.27826 5.30196 6.55838 5.55716 6.83706" fill="#989898"/>
</svg>
