<svg width="119" height="172" viewBox="0 0 119 172" fill="none" xmlns="http://www.w3.org/2000/svg">
<path d="M29.3288 122.38L0.706784 170.054C-0.948464 168.119 7.83354 118.35 12.4315 93.7074L29.3288 122.38Z" stroke="white" stroke-opacity="0.35"/>
<path d="M9.67261 171.435L29.3288 139.653C52.7781 131.593 99.7457 115.54 100.022 115.817C100.189 115.985 87.6564 139.106 63.4682 154.162C47.8855 163.862 25.5354 170.399 9.67261 171.435Z" stroke="white" stroke-opacity="0.35"/>
<path d="M64.1578 81.2709L36.9152 126.526L107.263 104.071C107.263 104.071 112.883 91.9524 114.85 83.6891C116.799 75.5012 117.264 62.2708 117.264 62.2708L64.1578 81.2709Z" stroke="white" stroke-opacity="0.35"/>
<path d="M34.5013 112.708L15.5349 82.6528C15.5349 82.6528 21.5193 59.8926 28.639 46.7252C33.1219 38.4342 43.1224 30.1432 43.1224 30.1432L57.9507 74.7072L34.5013 112.708Z" stroke="white" stroke-opacity="0.35"/>
<path d="M103.47 0.779363L64.8475 65.0344L50.3641 23.5796C50.3641 23.5796 63.6134 14.9819 72.7789 10.7976C84.2498 5.56095 103.47 0.779363 103.47 0.779363Z" stroke="white" stroke-opacity="0.35"/>
<path d="M72.7789 67.7981L117.953 52.9434C117.953 52.9434 117.739 38.8888 115.884 30.1432C114.052 21.5049 108.643 8.72488 108.643 8.72488L72.7789 67.7981Z" stroke="white" stroke-opacity="0.35"/>
</svg>
