<svg width="35" height="52" viewBox="0 0 35 52" fill="none" xmlns="http://www.w3.org/2000/svg">
<path d="M26.9069 32.5392C27.9609 32.4868 29.5345 33.167 29.5345 33.167C29.5345 33.167 27.1171 40.1771 20.8108 44.5714C14.5045 48.9658 3.99399 52 3.99399 52C3.99399 52 1.8427 47.6206 1.05105 44.5714C0.22529 41.3909 0 36.2012 0 36.2012C0 36.2012 1.37045 35.9682 2.20721 35.6781C3.98224 35.0626 4.67434 34.0953 6.30631 33.167C7.04204 32.7485 7.61713 32.5275 8.51351 32.5392C9.37051 32.5505 9.84105 32.8018 10.6156 33.167C12.6126 34.1087 13.5586 34.9457 15.03 35.5734C15.9209 35.9535 16.9667 36.1932 17.973 36.2012C18.9792 36.2092 19.6547 35.992 20.8108 35.4688C22.2823 34.803 24.8048 32.6439 26.9069 32.5392Z" fill="#58A8A7"/>
<path d="M0.735736 27.831L0 33.5855C0 33.5855 3.30777 31.7299 5.67568 30.5513C6.72673 30.0282 7.47438 29.8309 8.51351 29.8189C9.63378 29.806 10.2905 29.8789 11.3514 30.2374C12.4122 30.596 13.1381 31.0744 14.1892 31.9115C14.9644 32.5288 15.4678 32.9221 16.3964 33.2716C16.7117 33.3903 17.3358 33.5756 17.973 33.5855C18.6498 33.596 19.0284 33.423 19.6547 33.167C20.1304 32.9725 20.3588 32.7834 20.8108 32.5392C22.812 31.4581 23.8589 30.9698 25.4354 30.2374C26.0129 29.9692 26.6901 29.7143 27.3273 29.7143C27.7477 29.7143 28.1682 29.7143 28.5886 29.8189C29.3065 29.9976 30.5856 30.5513 30.5856 30.5513L31.6366 26.0523L29.5345 24.7968C28.968 24.4584 27.9955 24.2709 27.3273 24.2736C26.4811 24.2771 25.8559 24.4829 25.2252 24.7968C23.1851 25.8122 22.2659 26.9898 20.0751 27.6217C19.2323 27.8648 19.024 27.9356 17.973 27.9356C17.1159 27.9356 16.2781 27.6687 15.5556 27.4125C13.3765 26.6398 12.7177 25.7384 10.8258 24.7968C10.069 24.4201 9.56986 24.2831 8.72372 24.2736C7.83772 24.2637 7.23872 24.4809 6.41141 24.7968C5.78078 25.0375 4.51952 25.805 3.46847 26.4708C2.31231 27.2032 0.735736 27.831 0.735736 27.831Z" fill="#58A8A7"/>
<path d="M5.88589 21.9718L1.68168 24.5875C1.68168 24.5875 3.15315 19.7747 4.62462 18.1006C5.26839 17.3682 6.86971 15.9189 8.3033 15.9034C9.41981 15.8914 11.036 16.7404 11.036 16.7404L15.8709 19.5654C15.8709 19.5654 17.1429 20.0885 17.973 20.0885C18.8031 20.0885 20.0751 19.5654 20.0751 19.5654L25.2252 16.6358C25.2252 16.6358 26.7448 16.032 27.7477 16.1127C28.4727 16.171 29.5345 16.6358 29.5345 16.6358L32.8979 18.6237L32.2673 23.4366L29.5345 21.7626C29.5345 21.7626 28.2128 21.2066 27.3273 21.2394C26.5611 21.2678 25.4354 21.7626 25.4354 21.7626C25.4354 21.7626 22.7962 23.0646 21.021 24.169C20.1802 24.6922 19.5496 25.3676 17.973 25.4245C16.3964 25.4815 15.5556 24.4829 14.5045 23.7505C13.0446 22.7332 10.8258 21.7626 10.8258 21.7626C10.8258 21.7626 9.43934 21.2196 8.51351 21.2394C7.66752 21.2575 5.88589 21.9718 5.88589 21.9718Z" fill="#58A8A7"/>
<path d="M10.6156 13.1831C9.4635 12.8853 7.56757 13.1831 7.56757 13.1831C7.56757 13.1831 13.033 7.15493 19.5496 3.66197C26.3814 0 35 0 35 0L33.4234 15.5895L30.2703 13.7062C30.2703 13.7062 28.7536 13.2118 27.7477 13.1831C26.5808 13.1498 24.2793 14.0201 24.2793 14.0201L20.7057 16.1127C20.7057 16.1127 18.9189 17.159 17.973 17.159C17.027 17.159 15.03 15.7988 15.03 15.7988L13.033 14.4386C13.033 14.4386 11.6463 13.4495 10.6156 13.1831Z" fill="#58A8A7"/>
</svg>
