<svg width="36" height="36" viewBox="0 0 36 36" fill="none" xmlns="http://www.w3.org/2000/svg">
<mask id="mask0_0_26" style="mask-type:alpha" maskUnits="userSpaceOnUse" x="6" y="6" width="24" height="24">
<rect x="6" y="6" width="24" height="24" fill="#D9D9D9"/>
</mask>
<g mask="url(#mask0_0_26)">
<path d="M15.5 22C13.6833 22 12.1458 21.3708 10.8875 20.1125C9.62917 18.8542 9 17.3167 9 15.5C9 13.6833 9.62917 12.1458 10.8875 10.8875C12.1458 9.62917 13.6833 9 15.5 9C17.3167 9 18.8542 9.62917 20.1125 10.8875C21.3708 12.1458 22 13.6833 22 15.5C22 16.2333 21.8833 16.925 21.65 17.575C21.4167 18.225 21.1 18.8 20.7 19.3L26.3 24.9C26.4833 25.0833 26.575 25.3167 26.575 25.6C26.575 25.8833 26.4833 26.1167 26.3 26.3C26.1167 26.4833 25.8833 26.575 25.6 26.575C25.3167 26.575 25.0833 26.4833 24.9 26.3L19.3 20.7C18.8 21.1 18.225 21.4167 17.575 21.65C16.925 21.8833 16.2333 22 15.5 22ZM15.5 20C16.75 20 17.8125 19.5625 18.6875 18.6875C19.5625 17.8125 20 16.75 20 15.5C20 14.25 19.5625 13.1875 18.6875 12.3125C17.8125 11.4375 16.75 11 15.5 11C14.25 11 13.1875 11.4375 12.3125 12.3125C11.4375 13.1875 11 14.25 11 15.5C11 16.75 11.4375 17.8125 12.3125 18.6875C13.1875 19.5625 14.25 20 15.5 20Z" fill="#B7B7B7"/>
</g>
</svg>
