<svg width="174" height="335" viewBox="0 0 174 335" fill="none" xmlns="http://www.w3.org/2000/svg">
<path d="M173.668 2.89198L168.657 -0.000894337L168.657 5.78485L173.668 2.89198ZM0.501046 2.89198L0.501046 2.39092L-1.43226e-05 2.39092L-1.4301e-05 2.89198L0.501046 2.89198ZM0.50106 334.499L0 334.499L2.16099e-08 335L0.50106 335L0.50106 334.499ZM169.158 2.39092L0.501046 2.39092L0.501046 3.39305L169.158 3.39304L169.158 2.39092ZM-1.4301e-05 2.89198L-7.07754e-06 170.387L1.00211 170.387L1.00211 2.89198L-1.4301e-05 2.89198ZM-7.07754e-06 170.387L0 334.499L1.00212 334.499L1.00211 170.387L-7.07754e-06 170.387ZM0.50106 335L33.7428 335L33.7428 333.998L0.50106 333.998L0.50106 335Z" fill="black"/>
</svg>
